<?xml version="1.0" encoding="utf-8"?>
<!-- Generator: Adobe Illustrator 12.0.0, SVG Export Plug-In . SVG Version: 6.00 Build 51448)  -->
<!DOCTYPE svg PUBLIC "-//W3C//DTD SVG 1.0//EN" "http://www.w3.org/TR/2001/REC-SVG-20010904/DTD/svg10.dtd" [
	<!ENTITY ns_svg "http://www.w3.org/2000/svg">
	<!ENTITY ns_xlink "http://www.w3.org/1999/xlink">
]>
<svg  version="1.0" xmlns="&ns_svg;" xmlns:xlink="&ns_xlink;" width="488" height="395" viewBox="0 0 488 395"
	 overflow="visible" enable-background="new 0 0 488 395" xml:space="preserve">
<g id="人员_x3001_部门">
	<rect x="3.5" y="84.5" fill="none" stroke="#000000" width="75" height="37"/>
	<g>
		<path d="M26.633,98.636v5.537c0,2.607-0.392,4.657-1.176,6.152c-0.273-0.301-0.533-0.538-0.779-0.711
			c0.665-1.331,0.998-3.281,0.998-5.852v-6.084h5.551v0.957H26.633z M27.549,100.29h3.432v3.979c0,0.638-0.128,1.048-0.383,1.23
			c-0.246,0.219-0.766,0.324-1.559,0.314c-0.037-0.438-0.101-0.807-0.191-1.107c0.528,0.091,0.866,0.101,1.012,0.027
			c0.146-0.063,0.219-0.232,0.219-0.506v-2.98h-1.6v7.082c0.902-0.401,1.805-0.856,2.707-1.367c0,0.438,0.036,0.779,0.109,1.025
			c-1.358,0.692-2.288,1.18-2.789,1.463c-0.355,0.2-0.62,0.401-0.793,0.602l-0.602-0.766c0.292-0.273,0.438-0.666,0.438-1.176
			V100.29z M34.33,101.985h0.957v2.037c0,1.039-0.109,1.946-0.328,2.721c1.185,0.966,2.27,1.909,3.254,2.83l-0.766,0.82
			c-0.866-0.93-1.814-1.832-2.844-2.707c-0.027,0.055-0.055,0.105-0.082,0.15c-0.547,1.048-1.527,1.932-2.939,2.652
			c-0.246-0.347-0.483-0.625-0.711-0.834c1.313-0.629,2.219-1.372,2.721-2.229c0.492-0.829,0.738-1.964,0.738-3.404V101.985z
			 M31.951,100.304h1.682l0.355-1.682h-2.27v-0.93h6.535v0.93h-3.158l-0.41,1.682h2.98v7.082h-0.93v-6.18h-3.855v6.18h-0.93V100.304
			z"/>
		<path d="M43.176,99.442l0.998,0.424c-0.21,0.26-0.419,0.511-0.629,0.752h6.303v0.861c-0.757,0.88-1.759,1.639-3.008,2.276
			c1.513,0.47,3.358,0.709,5.537,0.718c-0.246,0.355-0.474,0.725-0.684,1.107c-2.438-0.187-4.462-0.613-6.07-1.278
			c-1.769,0.711-3.933,1.229-6.494,1.552c-0.155-0.337-0.347-0.665-0.574-0.984c2.301-0.232,4.256-0.615,5.865-1.148
			c-0.875-0.501-1.584-1.098-2.126-1.791c-0.684,0.656-1.393,1.244-2.126,1.764c-0.201-0.237-0.438-0.483-0.711-0.738
			C41.07,101.854,42.31,100.682,43.176,99.442z M39.43,98.485h5.899c-0.246-0.378-0.545-0.779-0.896-1.203l0.93-0.588
			c0.364,0.419,0.743,0.884,1.135,1.395l-0.629,0.396h5.783v2.557h-1.012v-1.654H40.441v1.641H39.43V98.485z M41.07,105.937h8.914
			v4.348h-1.012v-0.574h-6.891v0.574H41.07V105.937z M48.973,106.812h-6.891v2.023h6.891V106.812z M48.398,101.493h-5.229
			c0.615,0.729,1.424,1.324,2.427,1.784C46.758,102.781,47.692,102.186,48.398,101.493z"/>
	</g>
	<rect x="140.5" y="0.5" fill="none" stroke="#000000" width="75" height="37"/>
	<g>
		<path d="M156.678,19.517c1.258-1.887,2.219-4.097,2.885-6.631l1.039,0.301c-0.383,1.222-0.798,2.354-1.244,3.397v9.7h-1.025
			v-7.588c-0.388,0.707-0.793,1.358-1.217,1.955C156.997,20.26,156.851,19.881,156.678,19.517z M159.768,25.382
			c1.221-1.321,1.905-3.163,2.051-5.523l1.039,0.164c-0.064,0.83-0.18,1.6-0.349,2.311c0.547,1.14,1.351,1.862,2.413,2.167v-6.104
			h-2.324v0.643h-1.039v-5.359h7.52v5.264h-1.039v-0.547h-2.092v2.352h3.76v0.957h-3.76v2.96c1.258,0.059,2.716,0.039,4.375-0.062
			c-0.21,0.438-0.36,0.807-0.451,1.107c-1.395,0.018-2.726,0.009-3.992-0.027c-1.627,0.004-2.876-0.7-3.746-2.112
			c-0.396,1.062-0.943,1.957-1.641,2.687C160.319,26.011,160.077,25.719,159.768,25.382z M168.039,14.622h-5.441v2.83h5.441V14.622z
			"/>
		<path d="M170.691,17.097c0.884-1.267,1.59-2.675,2.119-4.225l1.025,0.342c-0.246,0.611-0.511,1.199-0.793,1.764h2.529v0.943
			h-3.008c-0.401,0.738-0.834,1.44-1.299,2.105C171.092,17.698,170.901,17.389,170.691,17.097z M175.477,23.317
			c0,0.401,0.022,0.779,0.068,1.135c-0.583,0.282-1.263,0.656-2.037,1.121c-0.164,0.091-0.355,0.246-0.574,0.465l-0.725-0.943
			c0.292-0.265,0.438-0.606,0.438-1.025v-2.98h-1.832v-0.943h1.832V18.3h-0.889v-0.943h3.486V18.3h-1.6v1.846h1.914v0.943h-1.914
			v3.254C174.31,23.987,174.92,23.646,175.477,23.317z M175.572,13.87l0.752-0.574c0.656,0.647,1.303,1.376,1.941,2.188
			l-0.861,0.697C176.775,15.297,176.165,14.526,175.572,13.87z M177.021,26.339h-0.998v-9.57h3.131v-3.883h1.053v3.883h3.268v7.93
			c0,1.057-0.497,1.586-1.49,1.586c-0.511,0-1.235-0.014-2.174-0.041c-0.055-0.337-0.119-0.711-0.191-1.121
			c0.856,0.055,1.508,0.082,1.955,0.082c0.602,0,0.902-0.255,0.902-0.766V23.14h-5.455V26.339z M182.477,17.794h-5.455v1.682h5.455
			V17.794z M177.021,22.155h5.455V20.46h-5.455V22.155z M181.055,15.661c0.647-0.702,1.276-1.477,1.887-2.324l0.902,0.684
			c-0.556,0.675-1.24,1.436-2.051,2.283L181.055,15.661z"/>
		<path d="M190.871,19.872h1.107c0.009,0.492-0.005,1.025-0.041,1.6c-0.027,0.41-0.082,0.789-0.164,1.135
			c1.969,0.775,4.12,1.705,6.453,2.789l-0.615,1.025c-1.777-0.921-3.842-1.878-6.193-2.871c-0.164,0.328-0.374,0.615-0.629,0.861
			c-1.058,0.984-2.844,1.677-5.359,2.078c-0.155-0.383-0.355-0.729-0.602-1.039c2.561-0.392,4.256-0.998,5.086-1.818
			c0.556-0.51,0.861-1.262,0.916-2.256C190.866,20.866,190.88,20.364,190.871,19.872z M186.154,18.505h10.705v4.99h-1.094v-4.033
			h-8.518v4.115h-1.094V18.505z M186.906,13.474h9.188v4.252H195V17.22h-7v0.506h-1.094V13.474z M195,16.263v-1.832h-7v1.832H195z"
			/>
	</g>
	<rect x="275.5" y="0.5" fill="none" stroke="#000000" width="75" height="37"/>
	<g>
		<path d="M295.178,12.927h1.039v13.357h-1.039v-4.218c-0.557,0.31-1.121,0.654-1.695,1.032c-0.237,0.173-0.47,0.378-0.697,0.615
			l-0.779-0.916c0.282-0.301,0.424-0.692,0.424-1.176v-6.781h1.039v7c0.542-0.287,1.111-0.592,1.709-0.916V12.927z M296.408,18.683
			c1.166-2.023,2.01-3.979,2.529-5.865l1.107,0.314c-0.292,0.843-0.598,1.65-0.916,2.42h5.961v1.012h-1.606
			c-0.137,2.639-0.813,4.788-2.03,6.446c0.925,0.82,2.237,1.533,3.938,2.14c-0.283,0.355-0.543,0.72-0.779,1.094
			c-1.623-0.693-2.917-1.493-3.883-2.399c-0.88,0.866-2.097,1.707-3.65,2.522c-0.191-0.301-0.424-0.606-0.697-0.916
			c1.554-0.779,2.755-1.586,3.603-2.42c-1.053-1.317-1.734-2.953-2.044-4.908c-0.256,0.497-0.52,0.976-0.793,1.436
			C296.973,19.293,296.727,19.002,296.408,18.683z M302.403,16.563h-3.637c0.132,2.224,0.774,4.097,1.928,5.619
			C301.733,20.72,302.303,18.847,302.403,16.563z"/>
		<path d="M310.613,23.222c0.009,0.401,0.031,0.771,0.068,1.107c-0.666,0.374-1.386,0.825-2.16,1.354
			c-0.229,0.164-0.447,0.351-0.656,0.561l-0.725-0.943c0.301-0.292,0.451-0.634,0.451-1.025v-3.035h-1.873v-0.943h1.873V18.3h-0.93
			v-0.93c-0.146,0.228-0.297,0.447-0.451,0.656c-0.174-0.328-0.369-0.638-0.588-0.93c0.893-1.249,1.6-2.657,2.119-4.225l0.998,0.328
			c-0.229,0.62-0.479,1.212-0.752,1.777h2.516v0.943h-2.994c-0.265,0.501-0.547,0.98-0.848,1.436h3.514V18.3h-1.6v1.996h1.982v0.943
			h-1.982v3.254C309.141,24.147,309.82,23.723,310.613,23.222z M318.119,20.624l0.697,0.793c-0.894,0.629-1.777,1.212-2.652,1.75
			c0.829,0.875,1.896,1.495,3.199,1.859c-0.283,0.383-0.52,0.729-0.711,1.039c-2.652-0.994-4.366-2.944-5.141-5.852h-1.285v4.457
			c0.729-0.346,1.526-0.756,2.393-1.23c0.009,0.419,0.031,0.789,0.068,1.107c-0.702,0.337-1.572,0.797-2.611,1.381
			c-0.128,0.082-0.319,0.237-0.574,0.465l-0.725-0.943c0.291-0.301,0.438-0.638,0.438-1.012v-10.91h6.768v7.027h-0.998v-0.342
			h-2.475c0.264,0.857,0.624,1.609,1.08,2.256C316.482,21.887,317.326,21.271,318.119,20.624z M316.984,14.458h-4.758v1.955h4.758
			V14.458z M316.984,19.284v-1.969h-4.758v1.969H316.984z"/>
		<path d="M325.871,19.872h1.107c0.009,0.492-0.005,1.025-0.041,1.6c-0.027,0.41-0.082,0.789-0.164,1.135
			c1.969,0.775,4.119,1.705,6.453,2.789l-0.615,1.025c-1.777-0.921-3.842-1.878-6.193-2.871c-0.164,0.328-0.374,0.615-0.629,0.861
			c-1.058,0.984-2.844,1.677-5.359,2.078c-0.155-0.383-0.355-0.729-0.602-1.039c2.561-0.392,4.256-0.998,5.086-1.818
			c0.556-0.51,0.861-1.262,0.916-2.256C325.866,20.866,325.88,20.364,325.871,19.872z M321.154,18.505h10.705v4.99h-1.094v-4.033
			h-8.518v4.115h-1.094V18.505z M321.906,13.474h9.188v4.252H330V17.22h-7v0.506h-1.094V13.474z M330,16.263v-1.832h-7v1.832H330z"
			/>
	</g>
	<rect x="133.5" y="177.5" fill="none" stroke="#000000" width="75" height="37"/>
	<g>
		<path d="M150.676,190.638h3.855v11.088c0,0.911-0.424,1.367-1.271,1.367c-0.465,0-0.898-0.014-1.299-0.041
			c-0.037-0.273-0.091-0.597-0.164-0.971c0.465,0.073,0.866,0.109,1.203,0.109c0.374,0,0.561-0.187,0.561-0.561v-3.145h-1.914
			c0.027,2.097-0.351,3.696-1.135,4.799c-0.201-0.265-0.451-0.52-0.752-0.766c0.61-0.938,0.916-2.27,0.916-3.992V190.638z
			 M153.561,191.526h-1.914v2.625h1.914V191.526z M151.646,197.638h1.914v-2.639h-1.914V197.638z M155.666,190.692h6.754
			c-0.046,0.738-0.082,1.322-0.109,1.75c-0.073,1.413-0.793,2.105-2.16,2.078c-0.374-0.009-0.962-0.027-1.764-0.055
			c-0.055-0.355-0.114-0.715-0.178-1.08c0.674,0.082,1.28,0.132,1.818,0.15c0.784,0.027,1.208-0.346,1.271-1.121
			c0.027-0.237,0.05-0.497,0.068-0.779h-4.662v3.938h5.77v0.807c-0.365,1.6-1.032,2.992-2.003,4.177
			c0.788,0.748,1.766,1.328,2.933,1.743c-0.31,0.364-0.574,0.692-0.793,0.984c-1.121-0.524-2.071-1.176-2.851-1.955
			c-0.697,0.688-1.516,1.294-2.454,1.818c-0.173-0.301-0.36-0.602-0.561-0.902c0.911-0.465,1.697-1.021,2.358-1.668
			c-0.889-1.14-1.475-2.511-1.757-4.115h-0.643v6.795h-1.039V190.692z M161.395,196.462h-3.11c0.282,1.313,0.786,2.429,1.511,3.35
			C160.547,198.859,161.08,197.742,161.395,196.462z"/>
		<path d="M167.656,189.708l1.025,0.438c-0.205,0.337-0.419,0.666-0.643,0.984h7.396v0.916c-0.848,1.03-2.008,1.93-3.479,2.7
			c1.531,0.556,3.356,0.9,5.476,1.032c-0.292,0.41-0.547,0.793-0.766,1.148c-2.375-0.314-4.366-0.845-5.975-1.593
			c-1.81,0.771-3.997,1.379-6.563,1.825c-0.155-0.282-0.342-0.602-0.561-0.957c2.283-0.351,4.266-0.848,5.947-1.49
			c-1.039-0.633-1.871-1.383-2.495-2.249c-0.707,0.839-1.488,1.616-2.345,2.331c-0.273-0.292-0.524-0.538-0.752-0.738
			C165.601,192.725,166.845,191.276,167.656,189.708z M164.785,197.72h3.979c0.063-0.442,0.118-0.935,0.164-1.477h1.107
			c-0.06,0.542-0.121,1.034-0.185,1.477h5.517c-0.091,1.632-0.178,2.775-0.26,3.432c-0.146,1.285-0.912,1.933-2.297,1.941
			c-0.538,0.009-1.345-0.009-2.42-0.055c-0.055-0.337-0.123-0.716-0.205-1.135c1.048,0.091,1.914,0.142,2.598,0.15
			c0.774-0.019,1.203-0.41,1.285-1.176c0.082-0.684,0.141-1.413,0.178-2.188h-4.56c-0.483,2.192-2.181,3.782-5.093,4.771
			c-0.21-0.301-0.433-0.606-0.67-0.916c2.616-0.848,4.165-2.133,4.648-3.855h-3.787V197.72z M173.973,192.032h-6.104
			c0.733,0.88,1.677,1.604,2.83,2.174C172.015,193.591,173.106,192.866,173.973,192.032z"/>
		<path d="M187.371,191.649c1.431,1.331,2.784,2.693,4.061,4.088l-0.971,0.807c-0.365-0.428-0.734-0.85-1.107-1.265
			c-4.093,0.173-7.219,0.321-9.379,0.444c-0.501,0.037-0.984,0.109-1.449,0.219l-0.451-1.176c0.419-0.155,0.797-0.369,1.135-0.643
			c1.559-1.276,2.985-2.748,4.279-4.416l1.025,0.629c-1.367,1.604-2.794,3.031-4.279,4.279c2.793-0.086,5.542-0.187,8.244-0.301
			c-0.625-0.679-1.258-1.34-1.9-1.982L187.371,191.649z M189.381,197.077v6.207h-1.121v-0.902h-7.52v0.902h-1.121v-6.207H189.381z
			 M188.26,198.089h-7.52v3.309h7.52V198.089z"/>
	</g>
	<rect x="411.5" y="62.5" fill="none" stroke="#000000" width="75" height="37"/>
	<g>
		<path d="M427.555,81.448c1.431-1.923,2.557-4.115,3.377-6.576l1.094,0.396c-0.47,1.217-0.957,2.333-1.463,3.35v9.721h-1.094
			v-7.731c-0.47,0.766-0.953,1.456-1.449,2.071C427.892,82.305,427.736,81.895,427.555,81.448z M435.43,84.853
			c-1.076,1.313-2.197,2.483-3.363,3.514c-0.246-0.283-0.524-0.547-0.834-0.793c1.157-0.875,2.242-2,3.254-3.377L435.43,84.853z
			 M437.713,74.995h1.121v3.008h1.955v0.984h-1.955v3.773h2.434v0.984h-9.939v-0.984h2.311v-3.773h-1.764v-0.984h1.764v-2.994h1.121
			v2.994h2.953V74.995z M434.76,82.761h2.953v-3.773h-2.953V82.761z M437.057,84.825l0.807-0.684
			c1.439,1.331,2.565,2.442,3.377,3.336l-0.902,0.834C439.408,87.208,438.314,86.047,437.057,84.825z"/>
		<path d="M447.994,75.269l0.998-0.533c0.392,0.501,0.766,1.044,1.121,1.627l-0.663,0.383h5.544v1.039h-10.65v3.35
			c0,3.227-0.666,5.637-1.996,7.232c-0.219-0.301-0.483-0.615-0.793-0.943c1.094-1.221,1.641-3.309,1.641-6.262v-4.416h5.783
			C448.682,76.244,448.354,75.752,447.994,75.269z M444.262,86.521h6.323c0.711-1.818,1.465-4.307,2.263-7.465l1.189,0.328
			c-0.853,3.008-1.609,5.387-2.27,7.137h3.377v1.039h-10.883V86.521z M445,79.808l1.039-0.355c0.564,1.659,1.111,3.519,1.641,5.578
			l-1.162,0.355C446.098,83.581,445.592,81.722,445,79.808z M448.295,79.124l1.053-0.301c0.474,1.641,0.893,3.478,1.258,5.51
			l-1.203,0.314C449.138,82.843,448.769,81.002,448.295,79.124z"/>
		<path d="M455.814,76.335h6.241c-0.173-0.323-0.386-0.684-0.636-1.08l1.053-0.479c0.273,0.47,0.561,0.989,0.861,1.559h5.893v0.971
			h-13.412V76.335z M456.813,79.261h3.322c-0.314-0.46-0.656-0.916-1.025-1.367l0.834-0.561c0.438,0.511,0.834,0.984,1.189,1.422
			l-0.738,0.506h3.104c0.46-0.592,0.884-1.217,1.271-1.873l1.039,0.602c-0.434,0.515-0.798,0.939-1.094,1.271h3.404v7.164
			c0,1.148-0.524,1.727-1.572,1.736c-0.565,0.009-1.203,0.004-1.914-0.014c-0.073-0.529-0.142-0.912-0.205-1.148
			c0.72,0.073,1.313,0.109,1.777,0.109c0.592,0,0.889-0.328,0.889-0.984v-5.92h-9.256v8.121h-1.025V79.261z M460.818,80.354
			l0.738,0.711c-1.066,0.912-2.064,1.714-2.994,2.406c-0.273-0.374-0.488-0.643-0.643-0.807
			C458.922,82,459.889,81.229,460.818,80.354z M459.766,86.972v-4.402h5.482v3.678h-4.498v0.725H459.766z M464.264,85.372v-1.928
			h-3.514v1.928H464.264z M463.225,81.106l0.602-0.752c1.349,0.848,2.369,1.527,3.063,2.037l-0.684,0.861
			C465.303,82.524,464.309,81.809,463.225,81.106z"/>
	</g>
	<rect x="412.5" y="215.5" fill="none" stroke="#000000" width="75" height="37"/>
	<g>
		<path d="M435.418,238.96c-0.319,0.41-0.588,0.798-0.807,1.162c-2.393-0.897-4.252-2.349-5.578-4.354v5.626h-1.066v-5.605
			c-1.336,1.859-3.172,3.377-5.51,4.553c-0.21-0.31-0.47-0.651-0.779-1.025c2.328-0.993,4.136-2.283,5.421-3.869h-5.243v-1.039
			h6.111v-1.203h1.066v1.203h6.098v1.039h-5.25C431.161,237.15,433.007,238.322,435.418,238.96z M422.854,229.704
			c-0.055-0.364-0.119-0.711-0.191-1.039c5.013-0.055,8.854-0.173,11.525-0.355l0.164,1.039
			C431.334,229.494,427.502,229.613,422.854,229.704z M423.018,230.907l0.807-0.588c0.674,0.784,1.354,1.604,2.037,2.461
			l-0.93,0.656C424.266,232.498,423.628,231.654,423.018,230.907z M427.105,230.36l0.902-0.533c0.82,1.14,1.412,1.996,1.777,2.57
			l-0.998,0.574C428.358,232.225,427.798,231.354,427.105,230.36z M430.646,232.876c0.811-0.902,1.686-1.96,2.625-3.172l0.957,0.711
			c-0.902,1.048-1.837,2.105-2.803,3.172L430.646,232.876z"/>
		<path d="M438.275,230.853h0.984v2.748c0,1.769-0.123,3.14-0.369,4.115l0.396-0.369c0.93,0.966,1.745,1.846,2.447,2.639
			l-0.861,0.725c-0.647-0.829-1.358-1.673-2.133-2.529c-0.328,1.039-1.117,2.101-2.365,3.186c-0.201-0.282-0.442-0.561-0.725-0.834
			c1.066-0.793,1.772-1.641,2.119-2.543c0.337-0.784,0.506-2.114,0.506-3.992V230.853z M436.457,228.665h4.621v3.924
			c0.911-1.395,1.59-2.967,2.037-4.717l1.08,0.246c-0.219,0.656-0.447,1.28-0.684,1.873h5.223c-0.055,4.43-0.109,7.378-0.164,8.846
			c-0.082,1.477-0.839,2.215-2.27,2.215c-0.784,0-1.618-0.019-2.502-0.055c-0.055-0.364-0.128-0.738-0.219-1.121
			c0.884,0.101,1.695,0.155,2.434,0.164c0.957-0.009,1.463-0.483,1.518-1.422c0.063-1.55,0.109-4.093,0.137-7.629h-4.566
			c-0.338,0.793-0.688,1.518-1.053,2.174c-0.265-0.173-0.588-0.342-0.971-0.506v4.484h-0.984v-7.479h-2.652v7.561h-0.984V228.665z
			 M444.715,234.298l0.943-0.273c0.419,1.313,0.824,2.688,1.217,4.129l-1.025,0.301c-0.073-0.273-0.142-0.552-0.205-0.834
			c-0.967,0.063-1.832,0.142-2.598,0.232c-0.401,0.046-0.807,0.118-1.217,0.219l-0.424-0.889c0.318-0.2,0.556-0.474,0.711-0.82
			c0.501-1.212,0.975-2.671,1.422-4.375l1.039,0.246c-0.547,1.687-1.09,3.24-1.627,4.662c0.774-0.046,1.595-0.101,2.461-0.164
			C445.193,235.93,444.961,235.118,444.715,234.298z"/>
		<path d="M449.828,239.479h6.084v-3.938h-5.004v-1.039h5.004v-3.117h-5.537v-1.039h12.195v1.039h-5.482v3.117h5.004v1.039h-5.004
			v3.938h6.084v1.012h-13.344V239.479z M455.393,228.323l1.012-0.52c0.556,0.829,0.957,1.472,1.203,1.928l-1.08,0.574
			C456.035,229.395,455.656,228.733,455.393,228.323z"/>
		<path d="M467.848,231.769c-0.347-0.456-0.725-0.921-1.135-1.395l0.615-0.438h-1.176c-0.524,0.665-1.107,1.253-1.75,1.764
			c-0.183-0.219-0.41-0.474-0.684-0.766c1.066-0.829,1.937-1.873,2.611-3.131h1.176c-0.229,0.451-0.477,0.88-0.745,1.285h4.013
			v0.848h-3.281c0.41,0.396,0.797,0.802,1.162,1.217L467.848,231.769z M464.279,231.837h5.845c-0.159-0.287-0.354-0.606-0.581-0.957
			l0.943-0.41c0.301,0.438,0.574,0.894,0.82,1.367h5.4v2.119h-1.053v-1.23h-10.322v1.244h-1.053V231.837z M465.824,233.737h8.422
			v3.295h-1.039v-0.342h-6.33v1.039h8.518v3.568h-1.039v-0.52h-7.479v0.533h-1.053V233.737z M473.207,234.558h-6.33v1.313h6.33
			V234.558z M474.355,238.55h-7.479v1.34h7.479V238.55z M474.096,231.755c-0.301-0.429-0.67-0.894-1.107-1.395l0.595-0.424h-1.155
			c-0.265,0.424-0.543,0.815-0.834,1.176c-0.201-0.2-0.479-0.424-0.834-0.67c0.638-0.711,1.171-1.591,1.6-2.639h1.176
			c-0.196,0.451-0.403,0.88-0.622,1.285h4.368v0.848h-3.5c0.414,0.401,0.788,0.802,1.121,1.203L474.096,231.755z"/>
	</g>
	<rect x="370.5" y="357.5" fill="none" stroke="#000000" width="75" height="37"/>
	<g>
		<path d="M378.402,369.604l-0.27,0.34c1.289,1.664,3.023,2.938,5.203,3.82c-0.188,0.25-0.395,0.563-0.621,0.938
			c-2.125-1.031-3.859-2.391-5.203-4.078c-1.172,1.5-2.938,2.906-5.297,4.219c-0.164-0.313-0.363-0.621-0.598-0.926
			c2.523-1.203,4.352-2.641,5.484-4.313H378.402z M373.949,373.893h6.797c-0.047,1.07-0.098,1.906-0.152,2.508
			c-0.055,0.695-0.219,1.172-0.492,1.43c-0.281,0.266-0.766,0.395-1.453,0.387c-0.445,0-0.914-0.008-1.406-0.023
			c-0.047-0.297-0.109-0.625-0.188-0.984c0.656,0.07,1.152,0.105,1.488,0.105c0.414,0,0.699-0.066,0.855-0.199
			c0.148-0.125,0.242-0.383,0.281-0.773c0.047-0.453,0.082-0.98,0.105-1.582h-4.91v4.102c0,0.688,0.359,1.031,1.078,1.031h4.055
			c0.852,0,1.328-0.281,1.43-0.844c0.102-0.461,0.188-1.027,0.258-1.699c0.281,0.125,0.586,0.238,0.914,0.34
			c-0.094,0.625-0.207,1.211-0.34,1.758c-0.219,0.891-0.914,1.336-2.086,1.336h-4.5c-1.156,0-1.734-0.57-1.734-1.711V373.893z"/>
		<path d="M383.582,375.252c1.016-1.789,1.719-3.703,2.109-5.742l0.867,0.164c-0.207,0.875-0.445,1.709-0.715,2.502v8.854h-0.82
			v-6.791c-0.32,0.699-0.672,1.357-1.055,1.975C383.859,375.908,383.73,375.588,383.582,375.252z M389.359,377.818
			c0.023,0.391,0.051,0.719,0.082,0.984c-0.695,0.453-1.367,0.941-2.016,1.465l-0.504-0.75c0.242-0.227,0.363-0.527,0.363-0.902
			v-4.395h-1.113v-0.809h1.945v5.332C388.625,378.385,389.039,378.076,389.359,377.818z M387.59,369.932
			c0.461,0.82,0.836,1.52,1.125,2.098l-0.797,0.445c-0.266-0.609-0.617-1.332-1.055-2.168L387.59,369.932z M388.844,373.471h2.074
			v-1.652h-1.676v-0.75h1.676v-1.512h0.844v1.512h1.641v0.75h-1.641v1.652h0.328c0.836-0.891,1.547-1.891,2.133-3l0.762,0.387
			c-0.504,0.926-1.113,1.797-1.828,2.613h2.145v0.75h-2.842c-0.371,0.371-0.766,0.73-1.184,1.078h3.146v5.684h-0.797v-0.797h-2.742
			v0.809h-0.797v-4.787c-0.391,0.273-0.797,0.537-1.219,0.791c-0.133-0.242-0.281-0.484-0.445-0.727
			c1.082-0.586,2.051-1.27,2.906-2.051h-2.484V373.471z M393.625,376.014h-2.742v1.324h2.742V376.014z M390.883,379.494h2.742
			v-1.465h-2.742V379.494z"/>
		<path d="M395.676,376.529c0.719-0.238,1.465-0.492,2.238-0.762v-2.766h-1.061c-0.156,0.742-0.346,1.422-0.568,2.039
			c-0.25-0.18-0.504-0.352-0.762-0.516c0.438-1.07,0.715-2.355,0.832-3.855l0.844,0.141c-0.055,0.488-0.121,0.957-0.199,1.406h0.914
			v-2.637h0.879v2.637h1.16v0.785h-1.16v2.455c0.383-0.141,0.773-0.283,1.172-0.428c0.039,0.344,0.082,0.641,0.129,0.891
			c-0.387,0.141-0.82,0.301-1.301,0.48v4.664h-0.879v-4.33c-0.625,0.234-1.313,0.498-2.063,0.791L395.676,376.529z M399.496,374.127
			c0.773-1.188,1.48-2.734,2.121-4.641l0.855,0.258c-0.223,0.621-0.445,1.199-0.668,1.734h5.086
			c-0.156,3.148-0.285,5.559-0.387,7.23c-0.086,1.305-0.711,1.957-1.875,1.957c-0.438,0-0.953-0.012-1.547-0.035
			c-0.039-0.289-0.094-0.621-0.164-0.996c0.68,0.078,1.219,0.117,1.617,0.117c0.633,0,0.98-0.359,1.043-1.078
			c0.141-1.648,0.266-3.77,0.375-6.363h-0.896c-0.203,1.992-0.533,3.563-0.99,4.711c-0.625,1.484-1.688,2.758-3.188,3.82
			c-0.172-0.242-0.371-0.48-0.598-0.715c1.461-1.031,2.473-2.215,3.035-3.551c0.453-1.098,0.744-2.52,0.873-4.266h-1.043
			c-0.211,1.492-0.525,2.691-0.943,3.598c-0.516,1.023-1.223,1.941-2.121,2.754c-0.195-0.25-0.398-0.48-0.609-0.691
			c0.891-0.773,1.551-1.586,1.98-2.438c0.418-0.867,0.695-1.941,0.832-3.223h-0.844c-0.398,0.887-0.797,1.641-1.195,2.262
			C400.051,374.439,399.801,374.291,399.496,374.127z"/>
		<path d="M407.652,373.412l0.586-0.68c0.633,0.438,1.297,0.941,1.992,1.512c-0.281,0.328-0.508,0.582-0.68,0.762
			C408.738,374.279,408.105,373.748,407.652,373.412z M408.016,380.654c0.469-1.375,0.875-2.891,1.219-4.547
			c0.344,0.148,0.66,0.27,0.949,0.363c-0.352,1.352-0.73,2.852-1.137,4.5L408.016,380.654z M408.109,370.354l0.598-0.621
			c0.57,0.453,1.207,0.992,1.91,1.617l-0.691,0.691C409.277,371.385,408.672,370.822,408.109,370.354z M411.824,375.592h0.891
			c0,1.711-0.16,2.91-0.48,3.598c-0.32,0.758-0.969,1.402-1.945,1.934c-0.18-0.289-0.379-0.547-0.598-0.773
			c0.891-0.469,1.457-1.008,1.699-1.617C411.68,378.139,411.824,377.092,411.824,375.592z M416.898,372.486
			c0.609,0.703,1.285,1.559,2.027,2.566c-0.289,0.18-0.57,0.363-0.844,0.551c-0.195-0.285-0.385-0.559-0.568-0.82
			c-1.918,0.086-3.682,0.172-5.291,0.258c-0.25,0.008-0.563,0.055-0.938,0.141l-0.398-0.879c0.289-0.148,0.563-0.328,0.82-0.539
			c0.605-0.516,1.207-1.152,1.805-1.91h-2.602v-0.832h3.721c-0.297-0.461-0.58-0.863-0.85-1.207l0.773-0.48
			c0.289,0.367,0.617,0.797,0.984,1.289l-0.609,0.398h3.984v0.832h-5.18l0.773,0.328c-0.727,0.781-1.406,1.438-2.039,1.969
			c1.262-0.039,2.756-0.09,4.482-0.152c-0.273-0.367-0.533-0.707-0.779-1.02L416.898,372.486z M414.133,375.592h0.879v5.227h-0.879
			V375.592z M416.277,375.545h0.879v3.926c0,0.359,0.141,0.539,0.422,0.539h0.41c0.242,0,0.395-0.199,0.457-0.598
			c0.055-0.422,0.09-0.914,0.105-1.477c0.273,0.125,0.566,0.238,0.879,0.34c-0.055,0.656-0.113,1.16-0.176,1.512
			c-0.094,0.695-0.465,1.043-1.113,1.043h-0.727c-0.758,0-1.137-0.457-1.137-1.371V375.545z"/>
		<path d="M419.781,379.482h5.215v-3.375h-4.289v-0.891h4.289v-2.672h-4.746v-0.891h10.453v0.891h-4.699v2.672h4.289v0.891h-4.289
			v3.375h5.215v0.867h-11.438V379.482z M424.551,369.92l0.867-0.445c0.477,0.711,0.82,1.262,1.031,1.652l-0.926,0.492
			C425.102,370.838,424.777,370.271,424.551,369.92z"/>
		<path d="M435.227,372.873c-0.297-0.391-0.621-0.789-0.973-1.195l0.527-0.375h-1.008c-0.449,0.57-0.949,1.074-1.5,1.512
			c-0.156-0.188-0.352-0.406-0.586-0.656c0.914-0.711,1.66-1.605,2.238-2.684h1.008c-0.195,0.387-0.408,0.754-0.639,1.102h3.439
			v0.727h-2.813c0.352,0.34,0.684,0.688,0.996,1.043L435.227,372.873z M432.168,372.932h5.01c-0.137-0.246-0.303-0.52-0.498-0.82
			l0.809-0.352c0.258,0.375,0.492,0.766,0.703,1.172h4.629v1.816h-0.902v-1.055h-8.848v1.066h-0.902V372.932z M433.492,374.561
			h7.219v2.824h-0.891v-0.293h-5.426v0.891h7.301v3.059h-0.891v-0.445h-6.41v0.457h-0.902V374.561z M439.82,375.264h-5.426v1.125
			h5.426V375.264z M440.805,378.686h-6.41v1.148h6.41V378.686z M440.582,372.861c-0.258-0.367-0.574-0.766-0.949-1.195l0.51-0.363
			h-0.99c-0.227,0.363-0.465,0.699-0.715,1.008c-0.172-0.172-0.41-0.363-0.715-0.574c0.547-0.609,1.004-1.363,1.371-2.262h1.008
			c-0.168,0.387-0.346,0.754-0.533,1.102h3.744v0.727h-3c0.355,0.344,0.676,0.688,0.961,1.031L440.582,372.861z"/>
	</g>
	<rect x="2.5" y="352.5" fill="none" stroke="#000000" width="75" height="37"/>
	<g>
		<path d="M20.633,366.909h5.448c-0.255-0.438-0.595-0.957-1.019-1.559l0.998-0.574c0.446,0.574,0.843,1.135,1.189,1.682
			l-0.766,0.451h5.605v1.107H21.85v3.391c0.009,2.862-0.734,5.141-2.229,6.836c-0.21-0.228-0.538-0.515-0.984-0.861
			c1.331-1.449,1.996-3.486,1.996-6.111V366.909z"/>
		<path d="M32.883,370.245h6.48v-2.256h-3.691c-0.378,0.725-0.784,1.39-1.217,1.996c-0.301-0.21-0.638-0.424-1.012-0.643
			c1.002-1.313,1.745-2.734,2.229-4.266l1.135,0.328c-0.205,0.547-0.419,1.071-0.643,1.572h3.199v-2.146h1.121v2.146h4.73v1.012
			h-4.73v2.256h5.756v1.012H32.883V370.245z M34.715,372.72h9.721v5.482h-1.094v-0.711h-7.533v0.711h-1.094V372.72z M43.342,373.704
			h-7.533v2.816h7.533V373.704z"/>
		<path d="M46.773,370.327h4.375c0.542-0.938,0.984-1.796,1.326-2.57l1.012,0.52c-0.396,0.692-0.818,1.376-1.265,2.051h2.386v0.916
			h-7.834V370.327z M47.074,366.718h3.418c-0.178-0.41-0.447-0.911-0.807-1.504l0.943-0.438c0.41,0.684,0.702,1.226,0.875,1.627
			l-0.67,0.314h3.527v0.916h-7.287V366.718z M47.758,372.665h5.906v5.564h-1.012v-1.012H48.77v1.025h-1.012V372.665z M47.99,368.345
			l0.834-0.506c0.456,0.647,0.87,1.294,1.244,1.941l-0.93,0.533C48.856,369.739,48.473,369.083,47.99,368.345z M52.652,373.581
			H48.77v2.693h3.883V373.581z M60.254,373.772c0,1.567-0.615,2.415-1.846,2.543c-0.465,0.055-1.085,0.036-1.859-0.055
			c-0.046-0.328-0.105-0.729-0.178-1.203c0.665,0.109,1.235,0.164,1.709,0.164c0.802,0,1.167-0.552,1.094-1.654
			c-0.037-0.976-0.734-1.974-2.092-2.994c0.592-1.176,1.194-2.483,1.805-3.924h-2.789v11.662h-1.039v-12.674h4.922v1.121
			c-0.355,0.921-0.907,2.114-1.654,3.582C59.611,371.344,60.254,372.487,60.254,373.772z"/>
	</g>
</g>
<g id="环节">
	<circle fill="#FFFFFF" stroke="#000000" cx="173" cy="111" r="33.5"/>
	<g>
		<path d="M164.393,115.931l2.857,0.027l5.031-0.096c-0.101,0.301-0.228,0.661-0.383,1.08l-4.765,0.055l-2.864-0.041
			c-1.641-0.055-2.775-0.606-3.404-1.654c-0.374,0.346-0.921,0.957-1.641,1.832l-0.561-1.135c0.807-0.779,1.39-1.337,1.75-1.675
			v-4.601h-1.627v-1.012h2.68v5.845C162.027,115.455,163.002,115.912,164.393,115.931z M160.373,104.118
			c0.465,0.565,1.103,1.427,1.914,2.584l-0.971,0.684c-0.738-1.157-1.345-2.051-1.818-2.68L160.373,104.118z M162.342,109.478h4.525
			v-2.283h-2.304c-0.273,0.693-0.559,1.313-0.854,1.859c-0.237-0.155-0.556-0.319-0.957-0.492c0.711-1.249,1.239-2.634,1.586-4.156
			l1.066,0.232c-0.16,0.57-0.326,1.107-0.499,1.613h1.962v-2.379h1.066v2.379h3.568v0.943h-3.568v2.283h4.225v0.943h-3.227v2.926
			c0,0.483,0.2,0.725,0.602,0.725h0.656c0.419,0,0.661-0.219,0.725-0.656c0.055-0.355,0.104-0.893,0.15-1.613
			c0.282,0.128,0.629,0.26,1.039,0.396c-0.073,0.629-0.15,1.158-0.232,1.586c-0.146,0.812-0.666,1.217-1.559,1.217h-1.012
			c-0.948,0-1.422-0.515-1.422-1.545v-3.035h-1.839c-0.005,0.415-0.016,0.784-0.034,1.107c-0.055,1.705-1.012,2.967-2.871,3.787
			c-0.183-0.264-0.41-0.569-0.684-0.916c1.604-0.665,2.438-1.622,2.502-2.871c0.018-0.273,0.034-0.643,0.048-1.107h-2.659V109.478z"
			/>
		<path d="M175.275,106.853h0.984v2.748c0,1.769-0.123,3.14-0.369,4.115l0.396-0.369c0.93,0.966,1.745,1.846,2.447,2.639
			l-0.861,0.725c-0.647-0.83-1.358-1.672-2.133-2.529c-0.328,1.039-1.117,2.101-2.365,3.186c-0.201-0.283-0.442-0.561-0.725-0.834
			c1.066-0.793,1.772-1.641,2.119-2.543c0.337-0.784,0.506-2.114,0.506-3.992V106.853z M173.457,104.665h4.621v3.924
			c0.911-1.395,1.59-2.967,2.037-4.717l1.08,0.246c-0.219,0.656-0.447,1.281-0.684,1.873h5.223c-0.055,4.43-0.109,7.378-0.164,8.846
			c-0.082,1.477-0.839,2.215-2.27,2.215c-0.784,0-1.618-0.019-2.502-0.055c-0.055-0.365-0.128-0.738-0.219-1.121
			c0.884,0.1,1.695,0.155,2.434,0.164c0.957-0.009,1.463-0.483,1.518-1.422c0.063-1.549,0.109-4.092,0.137-7.629h-4.566
			c-0.337,0.793-0.688,1.518-1.053,2.174c-0.265-0.173-0.588-0.342-0.971-0.506v4.484h-0.984v-7.479h-2.652v7.561h-0.984V104.665z
			 M181.715,110.298l0.943-0.273c0.419,1.313,0.825,2.689,1.217,4.129l-1.025,0.301c-0.073-0.273-0.142-0.551-0.205-0.834
			c-0.966,0.064-1.832,0.142-2.598,0.232c-0.401,0.046-0.807,0.119-1.217,0.219l-0.424-0.889c0.319-0.2,0.556-0.474,0.711-0.82
			c0.501-1.212,0.975-2.67,1.422-4.375l1.039,0.246c-0.547,1.687-1.089,3.24-1.627,4.662c0.774-0.045,1.595-0.1,2.461-0.164
			C182.193,111.93,181.961,111.118,181.715,110.298z"/>
	</g>
	<circle fill="#FFFFFF" stroke="#000000" cx="314" cy="110" r="33.5"/>
	<g>
		<path d="M308.674,108.724l1.053,0.451c-0.68,1.545-1.488,2.801-2.427,3.767c1.367,1.012,3.306,1.734,5.817,2.167
			c-0.338,0.456-0.611,0.838-0.82,1.148c-2.43-0.62-4.366-1.479-5.811-2.577c-1.254,0.979-3.245,1.871-5.975,2.673
			c-0.201-0.319-0.429-0.67-0.684-1.053c2.565-0.647,4.5-1.433,5.804-2.358c-0.902-0.92-1.68-2.121-2.331-3.603l0.916-0.52
			c0.597,1.354,1.354,2.488,2.27,3.404C307.32,111.395,308.049,110.228,308.674,108.724z M299.924,104.909h6.405
			c-0.214-0.446-0.522-0.989-0.923-1.627l1.012-0.492c0.392,0.547,0.738,1.121,1.039,1.723l-0.766,0.396h6.357v1.012h-13.125
			V104.909z M303.971,106.55l0.875,0.711c-1.276,1.34-2.603,2.539-3.979,3.596c-0.229-0.282-0.483-0.574-0.766-0.875
			C301.478,109.006,302.768,107.862,303.971,106.55z M308.879,106.481c1.668,1.313,2.971,2.411,3.91,3.295
			c-0.256,0.255-0.529,0.552-0.82,0.889c-1.03-1.057-2.311-2.215-3.842-3.473L308.879,106.481z"/>
		<path d="M313.678,114.411c0.492-0.702,0.971-1.549,1.436-2.543l0.875,0.438c-0.511,0.948-1.025,1.81-1.545,2.584
			C314.233,114.726,313.979,114.566,313.678,114.411z M314.238,106.44h2.557v-1.354h-3.021v-0.875h3.021v-1.381h1.012v1.381h3.008
			v0.875h-3.008v1.354h2.324v0.875h-5.893V106.44z M313.814,110.556h6.945v0.875h-2.926v3.008c0,1.039-0.516,1.559-1.545,1.559
			c-0.483,0-0.902-0.005-1.258-0.014c-0.055-0.365-0.123-0.716-0.205-1.053c0.373,0.055,0.77,0.082,1.189,0.082
			c0.537,0,0.807-0.278,0.807-0.834v-2.748h-3.008V110.556z M314.512,108.491h5.496v0.875h-5.496V108.491z M318.449,112.333
			l0.793-0.424c0.438,0.62,0.829,1.258,1.176,1.914l-0.861,0.479C319.201,113.573,318.832,112.917,318.449,112.333z
			 M322.879,106.577h1.012c-0.01,0.693-0.021,1.324-0.034,1.894c0.438,3.281,1.593,5.604,3.466,6.966
			c-0.347,0.301-0.629,0.579-0.848,0.834c-1.427-1.117-2.42-2.862-2.98-5.236c-0.461,2.078-1.555,3.855-3.281,5.332
			c-0.201-0.237-0.465-0.488-0.793-0.752c1.978-1.586,3.09-3.545,3.336-5.879C322.847,108.879,322.888,107.826,322.879,106.577z
			 M320.199,108.108c0.747-1.659,1.262-3.422,1.545-5.291l1.012,0.178c-0.128,0.688-0.271,1.354-0.431,1.996h4.587v0.943
			c-0.246,0.784-0.538,1.636-0.875,2.557c-0.256-0.155-0.574-0.287-0.957-0.396c0.301-0.72,0.561-1.436,0.779-2.146h-3.794
			c-0.273,0.925-0.586,1.8-0.937,2.625C320.801,108.391,320.49,108.236,320.199,108.108z"/>
	</g>
	<circle fill="#FFFFFF" stroke="#000000" cx="64.5" cy="231.5" r="33.5"/>
	<g>
		<path d="M54.119,229.212l1.094,0.41c-0.583,1.376-1.23,2.753-1.941,4.129c-0.301-0.164-0.652-0.337-1.053-0.52
			C52.957,231.992,53.59,230.652,54.119,229.212z M52.998,226.888h4.013c0.032-0.815,0.052-1.641,0.062-2.475h1.148
			c-0.014,0.829-0.039,1.654-0.075,2.475h5.052c-0.091,3.7-0.169,6.294-0.232,7.779c-0.119,1.796-0.907,2.702-2.365,2.721
			c-0.812,0-1.677-0.019-2.598-0.055c-0.037-0.364-0.101-0.802-0.191-1.313c0.975,0.109,1.85,0.164,2.625,0.164
			c0.893-0.019,1.367-0.615,1.422-1.791c0.091-1.851,0.159-3.979,0.205-6.385h-3.972c-0.142,2.839-0.518,4.849-1.128,6.029
			c-0.574,1.267-1.828,2.507-3.76,3.719c-0.219-0.328-0.451-0.643-0.697-0.943c1.823-1.185,2.98-2.329,3.473-3.432
			c0.524-0.962,0.85-2.753,0.978-5.373h-3.958V226.888z M63.389,229.636l0.998-0.328c0.465,1.094,0.943,2.315,1.436,3.664
			l-1.121,0.396C64.318,232.146,63.881,230.902,63.389,229.636z"/>
		<path d="M66.424,229.636h5.455v-5.223h1.148v2.037h5.742v1.012h-5.742v2.174h6.604v1.039H66.424V229.636z M71.865,231.167h1.148
			v1.572l0.561-0.725c2.169,0.993,3.933,1.873,5.291,2.639l-0.711,1.012c-1.24-0.757-2.953-1.663-5.141-2.721v4.936h-1.148V231.167z
			"/>
	</g>
	<circle fill="#FFFFFF" stroke="#000000" cx="450" cy="158" r="33.5"/>
	<g>
		<path d="M441.201,162.917l3.24,0.068l4.84-0.123c-0.101,0.301-0.229,0.661-0.383,1.08l-4.539,0.014l-3.295-0.068
			c-1.504-0.027-2.57-0.556-3.199-1.586c-0.374,0.346-0.921,0.957-1.641,1.832l-0.561-1.135c0.807-0.779,1.39-1.337,1.75-1.675
			v-4.601h-1.627v-1.012h2.68v5.831C439.031,162.437,439.943,162.894,441.201,162.917z M437.277,151.091
			c0.692,0.866,1.33,1.728,1.914,2.584c-0.383,0.246-0.721,0.474-1.012,0.684c-0.502-0.875-1.094-1.768-1.777-2.68L437.277,151.091z
			 M439.342,157.216h2.345c0.014-0.711,0.021-1.677,0.021-2.898h-1.723v-0.984h1.723v-2.406h1.094v2.406h2.707v-2.406h1.094v2.406
			h2.023v0.984h-2.023v2.898h2.557v0.984h-2.557v4.156h-1.094V158.2h-2.81c-0.269,1.859-1.056,3.245-2.358,4.156
			c-0.237-0.264-0.516-0.542-0.834-0.834c1.116-0.706,1.807-1.813,2.071-3.322h-2.235V157.216z M442.787,157.216h2.721v-2.898
			h-2.707C442.801,155.885,442.796,156.852,442.787,157.216z"/>
		<path d="M449.869,154.659c1.604-1.167,2.83-2.47,3.678-3.91l0.984,0.561c-0.429,0.638-0.907,1.258-1.436,1.859v3.773h-1.012
			v-2.721c-0.511,0.492-1.058,0.966-1.641,1.422C450.27,155.315,450.078,154.987,449.869,154.659z M456.049,159.048h1.066
			c0.009,1.066-0.032,1.777-0.123,2.133c1.868,0.638,3.796,1.349,5.783,2.133l-0.492,1.066c-2.006-0.866-3.888-1.609-5.646-2.229
			c-0.702,1.203-2.676,1.964-5.92,2.283c-0.137-0.301-0.314-0.647-0.533-1.039c3.135-0.237,4.99-0.861,5.564-1.873
			C455.967,161.167,456.066,160.342,456.049,159.048z M451.646,157.462h9.871v4.566h-1.066v-3.609h-7.738v3.609h-1.066V157.462z
			 M453.957,154.249c1.029-0.246,2.01-0.52,2.939-0.82v-2.516h1.066v2.146c1.349-0.492,2.57-1.053,3.664-1.682l0.643,0.916
			c-1.386,0.675-2.821,1.29-4.307,1.846v0.602c0,0.611,0.291,0.916,0.875,0.916h2.105c0.602,0,0.943-0.264,1.025-0.793
			c0.063-0.392,0.113-0.875,0.15-1.449c0.337,0.146,0.692,0.278,1.066,0.396c-0.073,0.602-0.15,1.107-0.232,1.518
			c-0.164,0.857-0.793,1.285-1.887,1.285h-2.434c-1.158,0-1.736-0.565-1.736-1.695v-0.396c-0.803,0.273-1.613,0.529-2.434,0.766
			L453.957,154.249z"/>
	</g>
	<circle fill="#FFFFFF" stroke="#000000" cx="315" cy="356" r="33.5"/>
	<g>
		<path d="M304.752,357.294c0.018,0.41,0.05,0.807,0.096,1.189c-0.948,0.692-1.769,1.345-2.461,1.955l-0.629-0.889
			c0.301-0.328,0.451-0.738,0.451-1.23v-4.17h-1.49v-0.957h2.488v5.318C303.689,358.155,304.205,357.75,304.752,357.294z
			 M302.387,349.132c0.61,0.602,1.294,1.317,2.051,2.146l-0.902,0.766c-0.711-0.902-1.354-1.654-1.928-2.256L302.387,349.132z
			 M306.188,350.636v5.619c0,2.671-0.725,4.698-2.174,6.084c-0.229-0.328-0.465-0.62-0.711-0.875c1.258-1.203,1.887-2.903,1.887-5.1
			v-6.658h8.422v10.938c0,1.012-0.465,1.518-1.395,1.518c-0.538,0-1.258-0.014-2.16-0.041c-0.046-0.337-0.114-0.688-0.205-1.053
			c0.966,0.063,1.658,0.096,2.078,0.096c0.455,0,0.684-0.241,0.684-0.725v-9.803H306.188z M306.611,354.396h2.297v-1.258h-1.914
			v-0.875h1.914v-1.299h0.984v1.299h1.887v0.875h-1.887v1.258h2.297v0.875h-5.578V354.396z M307.24,356.378h4.184v3.486h-3.227
			v0.629h-0.957V356.378z M310.467,357.253h-2.27v1.736h2.27V357.253z"/>
		<path d="M314.705,356.378c0.66-0.196,1.308-0.392,1.941-0.588v-3.24h-1.736v-0.984h1.736v-2.584h1.012v2.584h1.477v0.984h-1.477
			v2.919c0.556-0.182,1.098-0.362,1.627-0.54c0.009,0.41,0.036,0.766,0.082,1.066c-0.552,0.187-1.121,0.381-1.709,0.581v4.026
			c0,1.012-0.42,1.522-1.258,1.531c-0.292,0.009-0.743,0.005-1.354-0.014c-0.037-0.374-0.092-0.752-0.164-1.135
			c0.528,0.055,0.934,0.082,1.217,0.082c0.364,0,0.547-0.232,0.547-0.697v-3.445c-0.584,0.2-1.186,0.41-1.805,0.629L314.705,356.378
			z M320.475,352.044h1.627c0.209-0.989,0.373-2.037,0.492-3.145l1.039,0.109c-0.128,1.062-0.292,2.073-0.492,3.035h5.031v1.012
			h-5.264c-0.137,0.565-0.289,1.112-0.458,1.641h5.079v0.943c-0.547,1.595-1.342,2.907-2.386,3.938
			c0.902,0.761,2.003,1.308,3.302,1.641c-0.319,0.41-0.593,0.774-0.82,1.094c-1.285-0.515-2.377-1.196-3.274-2.044
			c-1.112,0.861-2.495,1.574-4.149,2.14c-0.201-0.301-0.429-0.624-0.684-0.971c1.663-0.419,3.049-1.05,4.156-1.894
			c-0.762-0.925-1.352-2.03-1.771-3.315c-0.829,2.083-1.912,3.828-3.247,5.236c-0.229-0.301-0.465-0.579-0.711-0.834
			c1.813-1.887,3.121-4.411,3.924-7.574h-2.475v-1.025c0.264-0.738,0.496-1.563,0.697-2.475l1.025,0.205
			C320.907,350.59,320.693,351.352,320.475,352.044z M326.422,355.653h-3.712c0.396,1.285,0.973,2.363,1.729,3.233
			C325.337,357.994,325.998,356.916,326.422,355.653z M324.727,349.911l0.561-0.711c0.902,0.538,1.727,1.071,2.475,1.6l-0.629,0.807
			C326.357,351.005,325.556,350.439,324.727,349.911z"/>
	</g>
	<circle fill="#FFFFFF" stroke="#000000" cx="34" cy="307" r="33.5"/>
	<g>
		<path d="M5.746,306.585h13.48v0.889h-2.051v4.074c0,1.066-0.483,1.6-1.449,1.6c-0.492,0-1.076-0.005-1.75-0.014
			c-0.055-0.374-0.123-0.752-0.205-1.135c0.656,0.073,1.198,0.109,1.627,0.109c0.492,0,0.738-0.282,0.738-0.848v-3.787H5.746
			V306.585z M6.252,301.335h5.879c-0.183-0.347-0.378-0.692-0.588-1.039l0.984-0.438c0.273,0.483,0.528,0.976,0.766,1.477h5.428
			v2.379h-1.066v-1.449H7.318v1.449H6.252V301.335z M6.949,305.587c2.625-0.347,4.151-0.802,4.58-1.367h-3.65v-0.834h4.047
			c0.063-0.255,0.091-0.542,0.082-0.861h1.025c-0.019,0.31-0.05,0.597-0.096,0.861h4.184v0.834h-4.43
			c-0.027,0.073-0.06,0.142-0.096,0.205c1.75,0.383,3.422,0.793,5.018,1.23l-0.314,0.848c-1.677-0.52-3.418-1.003-5.223-1.449
			c-0.793,0.62-2.384,1.099-4.771,1.436C7.204,306.188,7.086,305.888,6.949,305.587z M7.551,308.39h6.07v3.213H8.549v0.643H7.551
			V308.39z M12.623,310.769v-1.518H8.549v1.518H12.623z"/>
		<path d="M25.42,312.054c2.014,0.036,4.644,0.019,7.889-0.055c-0.155,0.364-0.306,0.716-0.451,1.053
			c-3.245,0.027-5.751,0.022-7.52-0.014c-1.65-0.046-2.803-0.574-3.459-1.586c-0.265,0.21-0.798,0.793-1.6,1.75l-0.588-1.162
			c0.565-0.511,1.13-1.007,1.695-1.49v-4.771h-1.559v-0.998h2.625v5.988C23.1,311.57,24.089,311.999,25.42,312.054z M21.1,300.036
			c0.674,0.793,1.376,1.682,2.105,2.666l-0.984,0.656c-0.593-0.911-1.249-1.813-1.969-2.707L21.1,300.036z M23.451,305.901h4.088
			c0.018-0.191,0.027-0.952,0.027-2.283h-3.609v-0.957h4.689c0.893-1.112,1.536-2.046,1.928-2.803l1.094,0.67
			c-0.374,0.474-0.976,1.185-1.805,2.133h2.844v0.957h-4.074c0,1.14-0.005,1.9-0.014,2.283h4.416v0.957h-4.512
			c-0.019,0.237-0.055,0.465-0.109,0.684c1.44,0.948,2.839,1.919,4.197,2.912l-0.725,0.93c-1.404-1.103-2.675-2.056-3.814-2.857
			c-0.62,1.276-1.841,2.288-3.664,3.035c-0.246-0.319-0.492-0.606-0.738-0.861c2.342-0.93,3.6-2.21,3.773-3.842h-3.992V305.901z
			 M24.941,300.501l0.82-0.615c0.465,0.501,0.998,1.126,1.6,1.873l-0.943,0.656C25.871,301.641,25.379,301.002,24.941,300.501z"/>
		<path d="M35.633,301.909h5.448c-0.255-0.438-0.595-0.957-1.019-1.559l0.998-0.574c0.446,0.574,0.843,1.135,1.189,1.682
			l-0.766,0.451h5.605v1.107H36.85v3.391c0.009,2.862-0.734,5.141-2.229,6.836c-0.21-0.228-0.538-0.515-0.984-0.861
			c1.331-1.449,1.996-3.486,1.996-6.111V301.909z"/>
		<path d="M47.883,305.245h6.48v-2.256h-3.691c-0.378,0.725-0.784,1.39-1.217,1.996c-0.301-0.21-0.638-0.424-1.012-0.643
			c1.002-1.313,1.745-2.734,2.229-4.266l1.135,0.328c-0.205,0.547-0.419,1.071-0.643,1.572h3.199v-2.146h1.121v2.146h4.73v1.012
			h-4.73v2.256h5.756v1.012H47.883V305.245z M49.715,307.72h9.721v5.482h-1.094v-0.711h-7.533v0.711h-1.094V307.72z M58.342,308.704
			h-7.533v2.816h7.533V308.704z"/>
	</g>
	<circle fill="#FFFFFF" stroke="#000000" cx="362" cy="281" r="33.5"/>
	<g>
		<path d="M351.178,273.927h1.039v13.357h-1.039v-4.218c-0.557,0.311-1.121,0.654-1.695,1.032c-0.237,0.173-0.47,0.378-0.697,0.615
			l-0.779-0.916c0.282-0.301,0.424-0.692,0.424-1.176v-6.781h1.039v7c0.542-0.287,1.111-0.593,1.709-0.916V273.927z
			 M352.408,279.683c1.166-2.023,2.01-3.979,2.529-5.865l1.107,0.314c-0.292,0.843-0.598,1.649-0.916,2.42h5.961v1.012h-1.606
			c-0.137,2.639-0.813,4.788-2.03,6.446c0.925,0.82,2.237,1.533,3.938,2.14c-0.283,0.355-0.543,0.72-0.779,1.094
			c-1.623-0.692-2.917-1.493-3.883-2.399c-0.88,0.865-2.097,1.707-3.65,2.522c-0.191-0.301-0.424-0.606-0.697-0.916
			c1.554-0.779,2.755-1.586,3.603-2.42c-1.053-1.317-1.734-2.953-2.044-4.908c-0.256,0.497-0.52,0.976-0.793,1.436
			C352.973,280.293,352.727,280.002,352.408,279.683z M358.403,277.563h-3.637c0.132,2.224,0.774,4.097,1.928,5.619
			C357.733,281.72,358.303,279.847,358.403,277.563z"/>
		<path d="M361.869,277.659c1.604-1.167,2.83-2.47,3.678-3.91l0.984,0.561c-0.429,0.638-0.907,1.258-1.436,1.859v3.773h-1.012
			v-2.721c-0.511,0.492-1.058,0.966-1.641,1.422C362.27,278.315,362.078,277.987,361.869,277.659z M368.049,282.048h1.066
			c0.009,1.066-0.032,1.777-0.123,2.133c1.868,0.638,3.796,1.349,5.783,2.133l-0.492,1.066c-2.006-0.866-3.888-1.608-5.646-2.229
			c-0.702,1.203-2.676,1.964-5.92,2.283c-0.137-0.301-0.314-0.647-0.533-1.039c3.135-0.237,4.99-0.861,5.564-1.873
			C367.967,284.167,368.066,283.342,368.049,282.048z M363.646,280.462h9.871v4.566h-1.066v-3.609h-7.738v3.609h-1.066V280.462z
			 M365.957,277.249c1.029-0.246,2.01-0.52,2.939-0.82v-2.516h1.066v2.146c1.349-0.492,2.57-1.053,3.664-1.682l0.643,0.916
			c-1.386,0.675-2.821,1.29-4.307,1.846v0.602c0,0.61,0.291,0.916,0.875,0.916h2.105c0.602,0,0.943-0.265,1.025-0.793
			c0.063-0.392,0.113-0.875,0.15-1.449c0.337,0.146,0.692,0.278,1.066,0.396c-0.073,0.602-0.15,1.107-0.232,1.518
			c-0.164,0.856-0.793,1.285-1.887,1.285h-2.434c-1.158,0-1.736-0.565-1.736-1.695v-0.396c-0.803,0.273-1.613,0.528-2.434,0.766
			L365.957,277.249z"/>
	</g>
</g>
<g id="实物">
	<g>
		<path d="M241.57,222.016c0.62,0.219,1.057,0.474,1.313,0.766c0.255,0.292,0.2,0.602-0.164,0.93h4.047l0.711-0.711l0.984,0.984
			h-10.664c-0.401,0-0.766,0.055-1.094,0.164l-0.438-0.438h6.016c-0.037-0.547-0.31-1.058-0.82-1.531L241.57,222.016z
			 M246.027,233.773c0.31,0,0.465-0.255,0.465-0.766v-6.453h-7.93v8.094l-0.766,0.273c0.036-1.422,0.055-3.071,0.055-4.949
			s-0.019-3.272-0.055-4.184l0.766,0.492h4.594c0.547-1.058,0.875-1.786,0.984-2.188l0.93,0.766
			c-0.328,0.073-0.875,0.547-1.641,1.422h2.953l0.383-0.492l0.82,0.656l-0.383,0.328v6.672c0.072,0.656-0.273,1.167-1.039,1.531
			c-0.073-0.511-0.565-0.856-1.477-1.039v-0.219C245.271,233.755,245.717,233.773,246.027,233.773z M242.063,227.867
			c-0.365,0.073-0.784,0.31-1.258,0.711c-0.474,0.401-1.058,0.875-1.75,1.422l-0.164-0.164c1.021-1.021,1.75-1.95,2.188-2.789
			L242.063,227.867z M240.094,224.258c0.911,0.474,1.376,0.848,1.395,1.121c0.018,0.273-0.082,0.52-0.301,0.738
			s-0.383,0.109-0.492-0.328s-0.365-0.911-0.766-1.422L240.094,224.258z M241.297,229.727h2.516l0.383-0.492l0.82,0.602
			l-0.383,0.328v2.844l-0.711,0.328v-0.82h-2.68v0.766l-0.711,0.273v-4.32L241.297,229.727z M241.242,232.242h2.68V230h-2.68
			V232.242z M243.32,227.32c1.567,0.401,2.396,0.784,2.488,1.148c0.091,0.364,0.063,0.656-0.082,0.875
			c-0.146,0.219-0.365,0.109-0.656-0.328c-0.292-0.438-0.894-0.93-1.805-1.477L243.32,227.32z"/>
		<path d="M255.516,233.883l-0.82,0.383v-1.203h-2.68v1.258l-0.82,0.328c0.036-0.911,0.055-1.96,0.055-3.145
			s-0.019-2.179-0.055-2.98l0.82,0.492h2.57l0.438-0.492l0.875,0.711l-0.438,0.328C255.461,231.567,255.479,233.008,255.516,233.883
			z M252.016,232.789h2.68v-3.5h-2.68V232.789z M259.563,227.539l-0.82,0.328v-0.875h-4.539v0.766l-0.82,0.273
			c0.036-1.167,0.055-2.196,0.055-3.09s-0.019-1.723-0.055-2.488l0.875,0.492h4.375l0.438-0.547l0.875,0.711l-0.438,0.328
			C259.508,225.224,259.525,226.591,259.563,227.539z M254.203,226.719h4.539v-3.5h-4.539V226.719z M261.695,233.992l-0.82,0.328
			v-1.258h-2.844v1.094l-0.82,0.328c0.036-0.839,0.055-1.841,0.055-3.008s-0.019-2.169-0.055-3.008l0.82,0.547h2.734l0.438-0.547
			l0.82,0.711l-0.383,0.328C261.641,232.133,261.658,233.628,261.695,233.992z M258.031,232.789h2.844v-3.5h-2.844V232.789z"/>
	</g>
	<g>
		<line fill="#FFFFFF" stroke="#000000" x1="233.5" y1="237.5" x2="264.5" y2="237.5"/>
		<line fill="#FFFFFF" stroke="#000000" x1="233.5" y1="241.5" x2="264.5" y2="241.5"/>
	</g>
	<g>
		<path d="M306.555,223.109c0.729,0.984,1.567,1.823,2.516,2.516c0.947,0.692,2.224,1.203,3.828,1.531v0.164
			c-0.656,0.109-1.058,0.364-1.203,0.766c-0.948-0.401-1.887-0.966-2.816-1.695s-1.777-1.731-2.543-3.008
			c-0.729,1.167-1.604,2.233-2.625,3.199c-1.021,0.966-2.242,1.796-3.664,2.488l-0.055-0.219c1.203-0.729,2.352-1.695,3.445-2.898
			s1.932-2.534,2.516-3.992l1.148,0.82L306.555,223.109z M309.398,233.336c-0.511-0.656-1.167-1.313-1.969-1.969l0.164-0.219
			c1.203,0.692,2.096,1.276,2.68,1.75c0.583,0.474,0.756,0.948,0.52,1.422c-0.237,0.474-0.438,0.574-0.602,0.301
			s-0.374-0.61-0.629-1.012c-1.75,0.146-3.218,0.282-4.402,0.41c-1.186,0.128-2.033,0.355-2.543,0.684l-0.656-1.094
			c0.547-0.146,1.185-0.638,1.914-1.477c0.729-0.839,1.166-1.477,1.313-1.914h-2.789c-0.401,0-0.766,0.055-1.094,0.164l-0.438-0.438
			h9.57l0.711-0.711l0.984,0.984h-6.398l0.711,0.656l-0.547,0.109c-1.131,1.203-2.078,2.06-2.844,2.57
			C304.075,233.519,306.189,233.445,309.398,233.336z M307.813,227.594l0.656-0.656l0.93,0.93h-5.031
			c-0.401,0-0.766,0.055-1.094,0.164l-0.438-0.438H307.813z"/>
		<path d="M321.43,228.633l-0.492,0.438c-0.109,1.203-0.365,2.196-0.766,2.98c-0.401,0.784-0.994,1.376-1.777,1.777
			c-0.784,0.401-2.051,0.747-3.801,1.039l-0.055-0.219c1.896-0.474,3.181-0.984,3.855-1.531c0.674-0.547,1.13-1.258,1.367-2.133
			c0.236-0.875,0.355-1.859,0.355-2.953L321.43,228.633z M316.453,229.398c0-0.802-0.019-1.659-0.055-2.57l0.875,0.438h6.672
			l0.383-0.492l0.875,0.656l-0.383,0.328v2.516c0,0.364,0.018,0.802,0.055,1.313l-0.82,0.328v-4.375h-6.836v4.211l-0.82,0.328
			C316.435,231.094,316.453,230.2,316.453,229.398z M317.328,224.504c0-0.602-0.019-1.285-0.055-2.051l0.766,0.383h5.031
			l0.328-0.438l0.82,0.547l-0.328,0.328v1.586c0,0.364,0.018,0.747,0.055,1.148l-0.766,0.273v-0.656h-5.141v0.656l-0.766,0.219
			C317.31,225.771,317.328,225.105,317.328,224.504z M318.039,225.352h5.141v-2.242h-5.141V225.352z M321.047,231.914
			c2.625,0.62,4.037,1.13,4.238,1.531c0.2,0.401,0.264,0.766,0.191,1.094c-0.073,0.328-0.301,0.31-0.684-0.055
			s-0.866-0.729-1.449-1.094c-0.584-0.364-1.367-0.766-2.352-1.203L321.047,231.914z"/>
		<path d="M333.406,232.516v-4.867h-3.664c-0.401,0-0.766,0.055-1.094,0.164l-0.438-0.438h5.195v-3.445
			c0-0.583-0.019-1.203-0.055-1.859l1.258,0.547l-0.438,0.492v1.477h3.5l0.766-0.766l0.984,1.039h-5.25v2.516h4.813l0.766-0.766
			l1.039,1.039h-7.383l1.258,0.711l-0.492,0.328v0.547c2.661,0.62,4.138,1.112,4.43,1.477c0.291,0.364,0.419,0.738,0.383,1.121
			c-0.037,0.383-0.347,0.292-0.93-0.273c-0.584-0.565-1.878-1.249-3.883-2.051v3.281c0,0.656,0.018,1.222,0.055,1.695l-0.875,0.383
			C333.388,233.883,333.406,233.099,333.406,232.516z"/>
	</g>
	<g>
		<line fill="#FFFFFF" stroke="#000000" x1="304.5" y1="237.5" x2="335.5" y2="237.5"/>
		<line fill="#FFFFFF" stroke="#000000" x1="304.5" y1="241.5" x2="335.5" y2="241.5"/>
	</g>
	<g>
		<path d="M220.32,343.781l-0.492,0.273c0.875,1.276,1.823,2.297,2.844,3.063c1.021,0.766,2.114,1.222,3.281,1.367v0.164
			c-0.511,0.109-0.894,0.364-1.148,0.766c-0.948-0.438-1.851-1.058-2.707-1.859c-0.857-0.802-1.705-1.914-2.543-3.336
			c-1.021,1.458-1.851,2.497-2.488,3.117c-0.638,0.62-1.285,1.157-1.941,1.613s-1.349,0.866-2.078,1.23l-0.055-0.219
			c0.729-0.474,1.458-1.03,2.188-1.668c0.729-0.638,1.431-1.386,2.105-2.242c0.674-0.856,1.303-1.887,1.887-3.09L220.32,343.781z
			 M220.813,351.848c0.255-0.019,0.383-0.191,0.383-0.52v-2.57h-3.938v4.977c0,0.547,0.273,0.82,0.82,0.82h4.977
			c0.219-0.036,0.364-0.191,0.438-0.465c0.073-0.273,0.127-1.012,0.164-2.215h0.273c0,0.62,0.045,1.148,0.137,1.586
			c0.091,0.438,0.301,0.729,0.629,0.875c-0.219,0.62-0.693,0.93-1.422,0.93h-5.469c-0.875,0-1.313-0.364-1.313-1.094v-3.445
			c0-0.875-0.019-1.769-0.055-2.68l0.875,0.438h3.773l0.547-0.547l0.766,0.766l-0.438,0.328v2.625c0,0.328-0.082,0.602-0.246,0.82
			s-0.483,0.419-0.957,0.602c-0.255-0.547-0.857-0.948-1.805-1.203v-0.219C219.938,351.802,220.557,351.866,220.813,351.848z"/>
		<path d="M228.25,352.121c0.146-1.039,0.228-2.343,0.246-3.91c0.018-1.567-0.009-2.88-0.082-3.938l1.039,0.547h8.313l0.766-0.766
			l1.039,1.039h-10.281c0.036,3.646-0.119,6.098-0.465,7.355c-0.347,1.258-0.866,2.434-1.559,3.527l-0.164-0.164
			C227.721,354.391,228.104,353.16,228.25,352.121z M235.141,355.648l-0.875,0.383c0.036-0.802,0.055-1.878,0.055-3.227h-3.391
			c-0.401,0-0.766,0.055-1.094,0.164l-0.438-0.438h4.922v-2.078h-2.461l-0.602,0.602l-0.711-0.766l0.602-0.273
			c0.364-0.729,0.729-1.604,1.094-2.625h-1.094c-0.401,0-0.766,0.055-1.094,0.164l-0.438-0.438h2.734
			c0.292-0.839,0.456-1.477,0.492-1.914l1.148,0.656c-0.292,0.183-0.583,0.602-0.875,1.258h4.43l0.82-0.766l1.039,1.039h-6.398
			c-0.365,0.875-0.748,1.805-1.148,2.789h2.461c0-1.021-0.019-1.786-0.055-2.297l1.367,0.547l-0.547,0.438v1.313h1.695l0.711-0.766
			l1.039,1.039h-3.445v2.078h3.008l0.711-0.711l1.039,0.984h-4.758C235.086,354.117,235.104,355.065,235.141,355.648z
			 M234.238,343.508c0.237,0.146,0.355,0.337,0.355,0.574s-0.091,0.446-0.273,0.629c-0.183,0.183-0.347,0.073-0.492-0.328
			c-0.146-0.401-0.474-0.784-0.984-1.148l0.055-0.164C233.555,343.216,234.001,343.362,234.238,343.508z"/>
	</g>
	<g>
		<line fill="#FFFFFF" stroke="#000000" x1="211.5" y1="358.5" x2="242.5" y2="358.5"/>
		<line fill="#FFFFFF" stroke="#000000" x1="211.5" y1="362.5" x2="242.5" y2="362.5"/>
	</g>
	<g>
		<path d="M103.688,351.027c0-2.606-0.019-4.402-0.055-5.387l1.313,0.711l-0.438,0.383v7.164c0,0.62,0.018,1.148,0.055,1.586
			l-0.93,0.383C103.669,355.247,103.688,353.634,103.688,351.027z M106.668,344.848c0.164,0.347,0.118,0.702-0.137,1.066
			c-0.255,0.364-0.465,0.265-0.629-0.301s-0.593-1.23-1.285-1.996l0.164-0.109C105.875,344.055,106.504,344.501,106.668,344.848z
			 M112.547,344.875l0.383-0.547l0.984,0.711l-0.438,0.383v8.695c0.073,0.875-0.383,1.458-1.367,1.75
			c-0.037-0.583-0.62-1.003-1.75-1.258v-0.273c0.729,0.073,1.294,0.128,1.695,0.164c0.401,0.036,0.602-0.183,0.602-0.656v-8.695
			h-3.281c-0.401,0-0.766,0.055-1.094,0.164l-0.438-0.438H112.547z"/>
		<path d="M118.891,345.039h3.992c-0.146-0.802-0.419-1.422-0.82-1.859l0.109-0.164c0.875,0.401,1.376,0.747,1.504,1.039
			c0.127,0.292,0.045,0.62-0.246,0.984h3.609l0.711-0.711l0.984,0.984h-10.008c0,2.734-0.055,4.548-0.164,5.441
			s-0.328,1.731-0.656,2.516s-0.912,1.595-1.75,2.434l-0.109-0.219c0.766-1.058,1.267-2.133,1.504-3.227
			c0.237-1.094,0.355-2.488,0.355-4.184s-0.019-2.89-0.055-3.582L118.891,345.039z M127.203,355.047l-0.875,0.328v-0.93h-5.578v0.93
			l-0.82,0.328c0.036-0.984,0.055-1.878,0.055-2.68s-0.019-1.695-0.055-2.68l0.93,0.492h1.914v-3.281
			c0-0.729-0.019-1.386-0.055-1.969l1.313,0.547l-0.492,0.438v1.531h2.844l0.711-0.711l0.984,0.984h-4.539v2.461h2.625l0.547-0.547
			l0.82,0.82l-0.383,0.328C127.148,353.442,127.167,354.646,127.203,355.047z M120.75,354.172h5.578v-3.063h-5.578V354.172z"/>
	</g>
	<g>
		<line fill="#FFFFFF" stroke="#000000" x1="100.5" y1="358.5" x2="131.5" y2="358.5"/>
		<line fill="#FFFFFF" stroke="#000000" x1="100.5" y1="362.5" x2="131.5" y2="362.5"/>
	</g>
</g>
<g id="流动_x3001_作用">
	<g>
		<g>
			<line fill="none" x1="78.5" y1="91.5" x2="143.5" y2="91.5"/>
			<g>
				<line fill="none" stroke="#000000" x1="78.5" y1="91.518" x2="143.348" y2="91.518"/>
				<polygon points="129.736,85.388 143.5,91.883 129.708,97.612 				"/>
			</g>
		</g>
	</g>
	<g>
		<g>
			<line fill="none" x1="138.5" y1="113.5" x2="80.5" y2="113.5"/>
			<g>
				<line fill="none" stroke="#000000" x1="138.5" y1="113.482" x2="80.636" y2="113.482"/>
				<polygon points="92.781,119.612 80.5,113.117 92.807,107.388 				"/>
			</g>
		</g>
	</g>
	<g>
		<g>
			<line fill="none" x1="200.5" y1="93.5" x2="283.5" y2="93.5"/>
			<g>
				<line fill="none" stroke="#000000" x1="200.5" y1="93.518" x2="283.306" y2="93.518"/>
				<polygon points="265.925,87.388 283.5,93.883 265.888,99.612 				"/>
			</g>
		</g>
	</g>
	<g>
		<g>
			<line fill="none" x1="279.5" y1="116.5" x2="206.5" y2="116.5"/>
			<g>
				<line fill="none" stroke="#000000" x1="279.5" y1="116.482" x2="206.671" y2="116.482"/>
				<polygon points="221.958,122.612 206.5,116.117 221.99,110.388 				"/>
			</g>
		</g>
	</g>
	<g>
		<g>
			<line fill="none" x1="172.5" y1="36.5" x2="172.5" y2="77.5"/>
			<g>
				<line fill="none" stroke="#000000" x1="172.482" y1="36.5" x2="172.482" y2="77.404"/>
				<polygon points="178.612,68.818 172.117,77.5 166.388,68.8 				"/>
			</g>
		</g>
	</g>
	<g>
		<g>
			<line fill="none" x1="317.5" y1="37.5" x2="317.5" y2="75.5"/>
			<g>
				<line fill="none" stroke="#000000" x1="317.482" y1="37.5" x2="317.482" y2="75.411"/>
				<polygon points="323.611,67.454 317.117,75.5 311.389,67.437 				"/>
			</g>
		</g>
	</g>
	<g>
		<g>
			<path fill="none" d="M67.5,82.5c33-27,208-25,230-1"/>
			<g>
				<path fill="none" stroke="#000000" d="M67.511,82.514c16.404-11.168,36.864-13.242,56.005-16.169
					c19.486-2.329,39.117-3.349,58.737-3.428c19.621-0.108,39.256,0.733,58.775,2.758c9.751,1.073,19.479,2.456,29.068,4.539
					c9.393,2.304,19.482,4.45,26.973,10.936"/>
				<path d="M251.221,60.743c8.264,2.187,16.467,4.726,24.447,7.84c7.775,3.218,16.229,6.683,21.549,13.175
					c-13.984-8.638-31.575-8.018-47.73-8.916L251.221,60.743z"/>
			</g>
		</g>
	</g>
	<g>
		<g>
			<line fill="none" x1="169.5" y1="177.5" x2="169.5" y2="144.5"/>
			<g>
				<line fill="none" stroke="#000000" x1="169.518" y1="177.5" x2="169.518" y2="144.577"/>
				<polygon points="163.388,151.488 169.883,144.5 175.612,151.502 				"/>
			</g>
		</g>
	</g>
	<g>
		<g>
			<path fill="none" d="M249.5,218.5c0-43.113-25.941-78-58-78"/>
			<g>
				<path fill="none" stroke="#000000" d="M249.518,218.5c-0.138-17.807-4.473-35.839-14.117-50.939
					c-9.36-14.967-25.428-26.98-43.65-27.062"/>
				<path d="M210.345,151.59c-4.779-5.099-11.163-9.288-18.845-11.473c7.659-1.917,16.357-1.688,24.734,0.759L210.345,151.59z"/>
			</g>
		</g>
	</g>
	<g>
		<g>
			<line fill="none" x1="252.5" y1="214.5" x2="290.5" y2="137.5"/>
			<g>
				<line fill="none" stroke="#000000" x1="252.516" y1="214.508" x2="290.428" y2="137.688"/>
				<polygon points="276.973,151.1 290.844,137.669 287.918,156.544 				"/>
			</g>
		</g>
	</g>
	<g>
		<g>
			<line fill="none" x1="307.5" y1="219.5" x2="300.5" y2="143.5"/>
			<g>
				<line fill="none" stroke="#000000" x1="307.518" y1="219.498" x2="300.534" y2="143.676"/>
				<polygon points="295.896,160.153 300.882,143.465 308.071,159.066 				"/>
			</g>
		</g>
	</g>
	<g>
		<g>
			<line fill="none" x1="29.5" y1="121.5" x2="52.5" y2="197.5"/>
			<g>
				<line fill="none" stroke="#000000" x1="29.483" y1="121.505" x2="52.429" y2="197.327"/>
				<polygon points="53.479,179.637 52.133,197.611 41.77,183.144 				"/>
			</g>
		</g>
	</g>
	<g>
		<g>
			<line fill="none" x1="132.5" y1="197.5" x2="95.5" y2="214.5"/>
			<g>
				<line fill="none" stroke="#000000" x1="132.493" y1="197.483" x2="95.579" y2="214.443"/>
				<polygon points="105.886,216.454 95.34,214.151 100.799,205.339 				"/>
			</g>
		</g>
	</g>
	<g>
		<g>
			<path fill="none" d="M306.5,240.5c-5,23-186,21-211,6"/>
			<g>
				<path fill="none" stroke="#000000" d="M306.482,240.496c-1.48,4.446-6.396,6.195-10.379,7.793
					c-4.219,1.539-8.601,2.585-12.996,3.484c-8.807,1.768-17.735,2.85-26.673,3.7c-17.889,1.63-35.859,2.23-53.818,2.293
					c-17.96,0.033-35.927-0.494-53.842-1.792c-17.749-1.75-36.167-2.356-52.821-9.25"/>
				<path d="M139.61,261.378c-14.938-3.888-30.835-6.92-43.913-15.207c14.414,4.406,30.03,3.206,45.105,3.042L139.61,261.378z"/>
			</g>
		</g>
	</g>
	<g>
		<line fill="none" stroke="#000000" x1="113.5" y1="340.5" x2="125.5" y2="167.5"/>
		<g>
			<g>
				<line fill="none" x1="125.5" y1="167.5" x2="148.5" y2="136.5"/>
				<g>
					<line fill="none" stroke="#000000" x1="125.515" y1="167.511" x2="148.46" y2="136.583"/>
					<polygon points="138.721,139.422 148.808,136.729 148.528,146.72 					"/>
				</g>
			</g>
		</g>
	</g>
	<line fill="none" stroke="#000000" x1="115.5" y1="343.5" x2="224.5" y2="198.5"/>
	<g>
		<g>
			<line fill="none" x1="224.5" y1="199.5" x2="282.5" y2="137.5"/>
			<g>
				<line fill="none" stroke="#000000" x1="224.513" y1="199.512" x2="282.377" y2="137.657"/>
				<polygon points="265.756,146.453 282.779,137.762 274.656,154.832 				"/>
			</g>
		</g>
	</g>
	<g>
		<g>
			<line fill="none" x1="227.5" y1="341.5" x2="244.5" y2="242.5"/>
			<g>
				<line fill="none" stroke="#000000" x1="227.518" y1="341.503" x2="244.479" y2="242.734"/>
				<polygon points="234.876,262.429 244.878,242.564 246.916,264.542 				"/>
			</g>
		</g>
	</g>
	<g>
		<g>
			<line fill="none" x1="132.5" y1="349.5" x2="212.5" y2="349.5"/>
			<g>
				<line fill="none" stroke="#000000" x1="132.5" y1="349.518" x2="212.313" y2="349.518"/>
				<polygon points="195.56,343.389 212.5,349.883 195.524,355.611 				"/>
			</g>
		</g>
	</g>
	<path fill="none" stroke="#000000" d="M251.5,241.5c20,11,25,43-14,95"/>
	<g>
		<g>
			<line fill="none" x1="450.5" y1="215.5" x2="450.5" y2="192.5"/>
			<g>
				<line fill="none" stroke="#000000" x1="450.518" y1="215.5" x2="450.518" y2="192.554"/>
				<polygon points="444.389,197.37 450.883,192.5 456.611,197.381 				"/>
			</g>
		</g>
	</g>
	<g>
		<g>
			<line fill="none" x1="446.5" y1="98.5" x2="446.5" y2="125.5"/>
			<g>
				<line fill="none" stroke="#000000" x1="446.482" y1="98.5" x2="446.482" y2="125.437"/>
				<polygon points="452.611,119.783 446.117,125.5 440.389,119.771 				"/>
			</g>
		</g>
	</g>
	<g>
		<g>
			<path fill="none" d="M258.5,224.5c9-22,124-81,156-73"/>
			<g>
				<path fill="none" stroke="#000000" d="M258.517,224.507c7.779-12.575,21.293-20.035,33.333-28.041
					c12.501-7.67,25.437-14.624,38.664-20.957c13.222-6.341,26.747-12.082,40.618-16.848c13.826-4.281,28.3-9.434,42.957-7.214"/>
				<path d="M376.035,150.615c12.704-1.384,26.372-3.089,38.372,1.257c-12.413-0.209-23.798,5.382-34.844,10.447L376.035,150.615z"
					/>
			</g>
		</g>
	</g>
	<g>
		<g>
			<line fill="none" x1="32.5" y1="351.5" x2="32.5" y2="341.5"/>
			<g>
				<line fill="none" stroke="#000000" x1="32.518" y1="351.5" x2="32.518" y2="341.523"/>
				<polygon points="26.388,343.617 32.883,341.5 38.612,343.622 				"/>
			</g>
		</g>
	</g>
	<g>
		<g>
			<path fill="none" d="M319.5,243.5c0,26.531-114.5,48-256,48"/>
			<g>
				<path fill="none" stroke="#000000" d="M319.482,243.5c-0.268,5.785-4.995,9.926-9.476,12.935
					c-4.638,3.068-9.695,5.464-14.864,7.505c-10.354,4.08-21.12,7.017-31.939,9.576c-21.683,5.021-43.73,8.303-65.824,10.892
					c-44.224,5.043-88.758,6.98-133.253,7.071"/>
				<path d="M120.417,296.415c-19.057-1.36-38.03-3.14-56.917-5.298c18.926-1.916,37.776-4.214,56.518-6.921L120.417,296.415z"/>
			</g>
		</g>
	</g>
	<g>
		<g>
			<line fill="none" x1="13.5" y1="279.5" x2="19.5" y2="122.5"/>
			<g>
				<line fill="none" stroke="#000000" x1="13.518" y1="279.501" x2="19.504" y2="122.868"/>
				<polygon points="12.122,155.511 19.883,122.515 24.334,156.048 				"/>
			</g>
		</g>
	</g>
	<g>
		<g>
			<line fill="none" x1="417.5" y1="171.5" x2="374.5" y2="248.5"/>
			<g>
				<line fill="none" stroke="#000000" x1="417.484" y1="171.491" x2="374.585" y2="248.311"/>
				<polygon points="388.941,235.175 374.165,248.313 378.288,229.182 				"/>
			</g>
		</g>
	</g>
	<g>
		<g>
			<line fill="none" x1="329.5" y1="295.5" x2="241.5" y2="342.5"/>
			<g>
				<line fill="none" stroke="#000000" x1="329.491" y1="295.484" x2="241.697" y2="342.374"/>
				<polygon points="263.014,337.938 241.319,342.162 257.294,327.136 				"/>
			</g>
		</g>
	</g>
	<g>
		<g>
			<line fill="none" x1="261.5" y1="294.5" x2="297.5" y2="330.5"/>
			<g>
				<line fill="none" stroke="#000000" x1="261.487" y1="294.513" x2="297.403" y2="330.429"/>
				<polygon points="294.199,318.556 297.229,330.771 285.539,327.183 				"/>
			</g>
		</g>
	</g>
	<g>
		<g>
			<line fill="none" x1="368.5" y1="374.5" x2="341.5" y2="372.5"/>
			<g>
				<line fill="none" stroke="#000000" x1="368.501" y1="374.482" x2="341.564" y2="372.486"/>
				<polygon points="346.766,379.019 341.528,372.118 347.681,366.829 				"/>
			</g>
		</g>
	</g>
	<g>
		<g>
			<line fill="none" x1="387.5" y1="355.5" x2="376.5" y2="309.5"/>
			<g>
				<line fill="none" stroke="#000000" x1="387.518" y1="355.496" x2="376.543" y2="309.604"/>
				<polygon points="372.885,320.662 376.873,309.411 384.778,317.84 				"/>
			</g>
		</g>
	</g>
	<g>
		<g>
			<line fill="none" x1="325.5" y1="331.5" x2="338.5" y2="306.5"/>
			<g>
				<line fill="none" stroke="#000000" x1="325.516" y1="331.509" x2="338.485" y2="306.566"/>
				<polygon points="330.325,308.974 338.84,306.677 341.164,314.625 				"/>
			</g>
		</g>
	</g>
	<line fill="none" stroke="#000000" x1="368.5" y1="391.5" x2="266.5" y2="391.5"/>
	<g>
		<g>
			<line fill="none" x1="266.5" y1="391.5" x2="233.5" y2="364.5"/>
			<g>
				<line fill="none" stroke="#000000" x1="266.512" y1="391.486" x2="233.589" y2="364.549"/>
				<polygon points="236.618,374.947 233.743,364.203 244.373,365.499 				"/>
			</g>
		</g>
	</g>
</g>
<g id="流动_x3001_作用文字">
	<g>
		<path d="M87.393,87.931l2.857,0.027l5.031-0.096c-0.101,0.301-0.228,0.661-0.383,1.08l-4.765,0.055l-2.864-0.041
			c-1.641-0.055-2.775-0.606-3.404-1.654c-0.374,0.346-0.921,0.957-1.641,1.832l-0.561-1.135c0.807-0.779,1.39-1.337,1.75-1.675
			v-4.601h-1.627v-1.012h2.68v5.845C85.027,87.455,86.002,87.912,87.393,87.931z M83.373,76.118
			c0.465,0.565,1.103,1.427,1.914,2.584l-0.971,0.684c-0.738-1.157-1.345-2.051-1.818-2.68L83.373,76.118z M85.342,81.478h4.525
			v-2.283h-2.304c-0.273,0.693-0.559,1.313-0.854,1.859c-0.237-0.155-0.556-0.319-0.957-0.492c0.711-1.249,1.239-2.634,1.586-4.156
			l1.066,0.232c-0.16,0.57-0.326,1.107-0.499,1.613h1.962v-2.379h1.066v2.379h3.568v0.943h-3.568v2.283h4.225v0.943h-3.227v2.926
			c0,0.483,0.2,0.725,0.602,0.725h0.656c0.419,0,0.661-0.219,0.725-0.656c0.055-0.355,0.104-0.893,0.15-1.613
			c0.282,0.128,0.629,0.26,1.039,0.396c-0.073,0.629-0.15,1.158-0.232,1.586c-0.146,0.812-0.666,1.217-1.559,1.217h-1.012
			c-0.948,0-1.422-0.515-1.422-1.545v-3.035H89.04c-0.005,0.415-0.016,0.784-0.034,1.107c-0.055,1.705-1.012,2.967-2.871,3.787
			c-0.183-0.264-0.41-0.569-0.684-0.916c1.604-0.665,2.438-1.622,2.502-2.871c0.018-0.273,0.034-0.643,0.048-1.107h-2.659V81.478z"
			/>
		<path d="M95.691,83.228c0.665-0.15,1.308-0.301,1.928-0.451v-3.254h-1.805v-0.957h1.805v-2.666h1.025v2.666h1.75v0.957h-1.75
			v2.994c0.497-0.127,0.975-0.255,1.436-0.383c0.018,0.401,0.05,0.738,0.096,1.012c-0.533,0.142-1.044,0.28-1.531,0.417v4.081
			c0,1.012-0.46,1.518-1.381,1.518c-0.219,0-0.647-0.009-1.285-0.027c-0.037-0.374-0.096-0.743-0.178-1.107
			c0.52,0.073,0.925,0.109,1.217,0.109c0.401,0,0.602-0.242,0.602-0.725v-3.568c-0.638,0.178-1.235,0.347-1.791,0.506L95.691,83.228
			z M99.889,85.907h4.252v-1.586h-3.418v-0.984h3.418v-1.559h1.039v1.559h3.5v0.984h-3.5v1.586h4.143v0.984h-4.143v2.338h-1.039
			v-2.338h-4.252V85.907z M100.586,77.485v-0.943h7.807v0.916c-0.588,1.071-1.477,2.005-2.666,2.803
			c1.007,0.415,2.206,0.711,3.596,0.889c-0.228,0.41-0.419,0.771-0.574,1.08c-1.595-0.31-2.949-0.761-4.061-1.354
			c-1.153,0.606-2.521,1.112-4.102,1.518c-0.109-0.319-0.265-0.656-0.465-1.012c1.362-0.314,2.545-0.692,3.548-1.135
			c-1.053-0.752-1.816-1.672-2.29-2.762H100.586z M107.176,77.485h-4.765c0.492,0.916,1.249,1.67,2.27,2.263
			C105.824,79.105,106.656,78.352,107.176,77.485z"/>
		<path d="M109.814,77.335h6.241c-0.173-0.323-0.385-0.684-0.636-1.08l1.053-0.479c0.273,0.47,0.561,0.989,0.861,1.559h5.893v0.971
			h-13.412V77.335z M110.813,80.261h3.322c-0.314-0.46-0.656-0.916-1.025-1.367l0.834-0.561c0.438,0.511,0.834,0.984,1.189,1.422
			l-0.738,0.506h3.104c0.46-0.592,0.884-1.217,1.271-1.873l1.039,0.602c-0.433,0.515-0.798,0.939-1.094,1.271h3.404v7.164
			c0,1.148-0.524,1.727-1.572,1.736c-0.565,0.009-1.203,0.004-1.914-0.014c-0.073-0.529-0.142-0.912-0.205-1.148
			c0.72,0.073,1.313,0.109,1.777,0.109c0.592,0,0.889-0.328,0.889-0.984v-5.92h-9.256v8.121h-1.025V80.261z M114.818,81.354
			l0.738,0.711c-1.066,0.912-2.064,1.714-2.994,2.406c-0.273-0.374-0.488-0.643-0.643-0.807
			C112.922,83,113.889,82.229,114.818,81.354z M113.766,87.972v-4.402h5.482v3.678h-4.498v0.725H113.766z M118.264,86.372v-1.928
			h-3.514v1.928H118.264z M117.225,82.106l0.602-0.752c1.349,0.848,2.37,1.527,3.063,2.037l-0.684,0.861
			C119.303,83.524,118.309,82.809,117.225,82.106z"/>
		<path d="M124.443,82.995h5.209v6.316h-1.039v-0.916h-3.131v0.916h-1.039V82.995z M128.613,83.952h-3.131v3.514h3.131V83.952z
			 M125.783,76.46h9.434v5.414h-1.094v-0.438h-7.246v0.438h-1.094V76.46z M134.123,77.417h-7.246v3.063h7.246V77.417z
			 M131.348,82.995h5.223v6.316h-1.039v-0.93h-3.145v0.93h-1.039V82.995z M135.531,83.952h-3.145v3.541h3.145V83.952z"/>
	</g>
	<g>
		<path d="M222.275,81.853h0.984v2.748c0,1.769-0.123,3.14-0.369,4.115l0.396-0.369c0.93,0.966,1.745,1.846,2.447,2.639
			l-0.861,0.725c-0.647-0.83-1.358-1.672-2.133-2.529c-0.328,1.039-1.117,2.101-2.365,3.186c-0.201-0.283-0.442-0.561-0.725-0.834
			c1.066-0.793,1.772-1.641,2.119-2.543c0.337-0.784,0.506-2.114,0.506-3.992V81.853z M220.457,79.665h4.621v3.924
			c0.911-1.395,1.59-2.967,2.037-4.717l1.08,0.246c-0.219,0.656-0.447,1.281-0.684,1.873h5.223c-0.055,4.43-0.109,7.378-0.164,8.846
			c-0.082,1.477-0.839,2.215-2.27,2.215c-0.784,0-1.618-0.019-2.502-0.055c-0.055-0.365-0.128-0.738-0.219-1.121
			c0.884,0.1,1.695,0.155,2.434,0.164c0.957-0.009,1.463-0.483,1.518-1.422c0.063-1.549,0.109-4.092,0.137-7.629h-4.566
			c-0.337,0.793-0.688,1.518-1.053,2.174c-0.265-0.173-0.588-0.342-0.971-0.506v4.484h-0.984v-7.479h-2.652v7.561h-0.984V79.665z
			 M228.715,85.298l0.943-0.273c0.419,1.313,0.825,2.689,1.217,4.129l-1.025,0.301c-0.073-0.273-0.142-0.551-0.205-0.834
			c-0.966,0.064-1.832,0.142-2.598,0.232c-0.401,0.046-0.807,0.119-1.217,0.219l-0.424-0.889c0.319-0.2,0.556-0.474,0.711-0.82
			c0.501-1.212,0.975-2.67,1.422-4.375l1.039,0.246c-0.547,1.687-1.089,3.24-1.627,4.662c0.774-0.045,1.595-0.1,2.461-0.164
			C229.193,86.93,228.961,86.118,228.715,85.298z"/>
		<path d="M233.705,87.034c0.838-0.278,1.709-0.574,2.611-0.889v-3.227h-1.237c-0.183,0.866-0.403,1.659-0.663,2.379
			c-0.292-0.209-0.588-0.41-0.889-0.602c0.51-1.249,0.834-2.748,0.971-4.498l0.984,0.164c-0.064,0.57-0.142,1.117-0.232,1.641h1.066
			v-3.076h1.025v3.076h1.354v0.916h-1.354v2.864c0.446-0.164,0.902-0.33,1.367-0.499c0.045,0.401,0.096,0.748,0.15,1.039
			c-0.451,0.164-0.957,0.351-1.518,0.561v5.441h-1.025v-5.052c-0.729,0.273-1.531,0.581-2.406,0.923L233.705,87.034z
			 M238.162,84.231c0.902-1.385,1.727-3.19,2.475-5.414l0.998,0.301c-0.26,0.725-0.52,1.399-0.779,2.023h5.934
			c-0.183,3.673-0.333,6.485-0.451,8.436c-0.101,1.522-0.83,2.283-2.188,2.283c-0.511,0-1.112-0.014-1.805-0.041
			c-0.046-0.337-0.109-0.725-0.191-1.162c0.793,0.091,1.422,0.137,1.887,0.137c0.738,0,1.144-0.419,1.217-1.258
			c0.164-1.923,0.31-4.397,0.438-7.424h-1.046c-0.237,2.324-0.622,4.156-1.155,5.496c-0.729,1.732-1.969,3.217-3.719,4.457
			c-0.201-0.283-0.433-0.561-0.697-0.834c1.704-1.203,2.885-2.584,3.541-4.143c0.528-1.28,0.868-2.939,1.019-4.977h-1.217
			c-0.246,1.741-0.613,3.14-1.101,4.197c-0.602,1.194-1.427,2.265-2.475,3.213c-0.228-0.292-0.465-0.561-0.711-0.807
			c1.039-0.902,1.809-1.85,2.311-2.844c0.487-1.012,0.811-2.265,0.971-3.76h-0.984c-0.465,1.035-0.93,1.914-1.395,2.639
			C238.809,84.596,238.518,84.423,238.162,84.231z"/>
		<path d="M247.773,88.511h6.193v-1.545h-3.787v0.643h-1.039v-6.631h2.837c-0.438-0.51-0.909-1.034-1.415-1.572l0.779-0.643
			c0.674,0.647,1.267,1.244,1.777,1.791l-0.506,0.424h3.206c0.501-0.665,1.009-1.39,1.524-2.174l1.094,0.588
			c-0.47,0.57-0.923,1.099-1.36,1.586h2.796v6.631h-1.039v-0.643h-3.801v1.545h6.193v0.984h-6.193v2.885h-1.066v-2.885h-6.193
			V88.511z M250.18,83.493h3.787v-1.559h-3.787V83.493z M250.18,86.009h3.787v-1.586h-3.787V86.009z M258.834,81.935h-3.801v1.559
			h3.801V81.935z M255.033,86.009h3.801v-1.586h-3.801V86.009z"/>
	</g>
	<g>
		<path d="M204.113,129.44h1.176v1.873h8.176V127.8h-9.857v-1.012h11.006v6.371h-1.148v-0.834h-8.176v3.979
			c0,0.839,0.396,1.258,1.189,1.258h6.74c0.784,0,1.258-0.282,1.422-0.848c0.164-0.556,0.287-1.299,0.369-2.229
			c0.355,0.155,0.747,0.292,1.176,0.41c-0.128,0.948-0.265,1.705-0.41,2.27c-0.273,1.03-1.039,1.545-2.297,1.545h-7.273
			c-1.395,0-2.092-0.72-2.092-2.16V129.44z"/>
		<path d="M225.674,131.724l1.053,0.451c-0.679,1.545-1.488,2.801-2.427,3.767c1.367,1.012,3.306,1.734,5.817,2.167
			c-0.337,0.456-0.611,0.838-0.82,1.148c-2.429-0.62-4.366-1.479-5.811-2.577c-1.253,0.979-3.245,1.871-5.975,2.673
			c-0.201-0.319-0.429-0.67-0.684-1.053c2.565-0.647,4.5-1.433,5.804-2.358c-0.902-0.92-1.68-2.121-2.331-3.603l0.916-0.52
			c0.597,1.354,1.354,2.488,2.27,3.404C224.32,134.395,225.049,133.228,225.674,131.724z M216.924,127.909h6.405
			c-0.214-0.446-0.522-0.989-0.923-1.627l1.012-0.492c0.392,0.547,0.738,1.121,1.039,1.723l-0.766,0.396h6.357v1.012h-13.125
			V127.909z M220.971,129.55l0.875,0.711c-1.276,1.34-2.603,2.539-3.979,3.596c-0.228-0.282-0.483-0.574-0.766-0.875
			C218.478,132.006,219.768,130.862,220.971,129.55z M225.879,129.481c1.668,1.313,2.971,2.411,3.91,3.295
			c-0.255,0.255-0.529,0.552-0.82,0.889c-1.03-1.057-2.311-2.215-3.842-3.473L225.879,129.481z"/>
		<path d="M230.678,137.411c0.492-0.702,0.971-1.549,1.436-2.543l0.875,0.438c-0.511,0.948-1.025,1.81-1.545,2.584
			C231.233,137.726,230.979,137.566,230.678,137.411z M231.238,129.44h2.557v-1.354h-3.021v-0.875h3.021v-1.381h1.012v1.381h3.008
			v0.875h-3.008v1.354h2.324v0.875h-5.893V129.44z M230.814,133.556h6.945v0.875h-2.926v3.008c0,1.039-0.515,1.559-1.545,1.559
			c-0.483,0-0.902-0.005-1.258-0.014c-0.055-0.365-0.123-0.716-0.205-1.053c0.374,0.055,0.77,0.082,1.189,0.082
			c0.538,0,0.807-0.278,0.807-0.834v-2.748h-3.008V133.556z M231.512,131.491h5.496v0.875h-5.496V131.491z M235.449,135.333
			l0.793-0.424c0.438,0.62,0.829,1.258,1.176,1.914l-0.861,0.479C236.201,136.573,235.832,135.917,235.449,135.333z
			 M239.879,129.577h1.012c-0.009,0.693-0.021,1.324-0.034,1.894c0.438,3.281,1.593,5.604,3.466,6.966
			c-0.347,0.301-0.629,0.579-0.848,0.834c-1.427-1.117-2.42-2.862-2.98-5.236c-0.46,2.078-1.554,3.855-3.281,5.332
			c-0.201-0.237-0.465-0.488-0.793-0.752c1.978-1.586,3.09-3.545,3.336-5.879C239.847,131.879,239.888,130.826,239.879,129.577z
			 M237.199,131.108c0.747-1.659,1.262-3.422,1.545-5.291l1.012,0.178c-0.128,0.688-0.271,1.354-0.431,1.996h4.587v0.943
			c-0.246,0.784-0.538,1.636-0.875,2.557c-0.255-0.155-0.574-0.287-0.957-0.396c0.301-0.72,0.561-1.436,0.779-2.146h-3.794
			c-0.273,0.925-0.586,1.8-0.937,2.625C237.801,131.391,237.491,131.236,237.199,131.108z"/>
		<path d="M247.275,128.853h0.984v2.748c0,1.769-0.123,3.14-0.369,4.115l0.396-0.369c0.93,0.966,1.745,1.846,2.447,2.639
			l-0.861,0.725c-0.647-0.83-1.358-1.672-2.133-2.529c-0.328,1.039-1.117,2.101-2.365,3.186c-0.201-0.283-0.442-0.561-0.725-0.834
			c1.066-0.793,1.772-1.641,2.119-2.543c0.337-0.784,0.506-2.114,0.506-3.992V128.853z M245.457,126.665h4.621v3.924
			c0.911-1.395,1.59-2.967,2.037-4.717l1.08,0.246c-0.219,0.656-0.447,1.281-0.684,1.873h5.223c-0.055,4.43-0.109,7.378-0.164,8.846
			c-0.082,1.477-0.839,2.215-2.27,2.215c-0.784,0-1.618-0.019-2.502-0.055c-0.055-0.365-0.128-0.738-0.219-1.121
			c0.884,0.1,1.695,0.155,2.434,0.164c0.957-0.009,1.463-0.483,1.518-1.422c0.063-1.549,0.109-4.092,0.137-7.629h-4.566
			c-0.338,0.793-0.688,1.518-1.053,2.174c-0.265-0.173-0.588-0.342-0.971-0.506v4.484h-0.984v-7.479h-2.652v7.561h-0.984V126.665z
			 M253.715,132.298l0.943-0.273c0.419,1.313,0.824,2.689,1.217,4.129l-1.025,0.301c-0.073-0.273-0.142-0.551-0.205-0.834
			c-0.967,0.064-1.832,0.142-2.598,0.232c-0.401,0.046-0.807,0.119-1.217,0.219l-0.424-0.889c0.318-0.2,0.556-0.474,0.711-0.82
			c0.501-1.212,0.975-2.67,1.422-4.375l1.039,0.246c-0.547,1.687-1.09,3.24-1.627,4.662c0.774-0.045,1.595-0.1,2.461-0.164
			C254.193,133.93,253.961,133.118,253.715,132.298z"/>
		<path d="M258.705,134.034c0.838-0.278,1.709-0.574,2.611-0.889v-3.227h-1.237c-0.183,0.866-0.403,1.659-0.663,2.379
			c-0.292-0.209-0.588-0.41-0.889-0.602c0.51-1.249,0.834-2.748,0.971-4.498l0.984,0.164c-0.064,0.57-0.142,1.117-0.232,1.641h1.066
			v-3.076h1.025v3.076h1.354v0.916h-1.354v2.864c0.446-0.164,0.902-0.33,1.367-0.499c0.045,0.401,0.096,0.748,0.15,1.039
			c-0.451,0.164-0.957,0.351-1.518,0.561v5.441h-1.025v-5.052c-0.729,0.273-1.531,0.581-2.406,0.923L258.705,134.034z
			 M263.162,131.231c0.902-1.385,1.727-3.19,2.475-5.414l0.998,0.301c-0.26,0.725-0.52,1.399-0.779,2.023h5.934
			c-0.183,3.673-0.333,6.485-0.451,8.436c-0.101,1.522-0.83,2.283-2.188,2.283c-0.511,0-1.112-0.014-1.805-0.041
			c-0.046-0.337-0.109-0.725-0.191-1.162c0.793,0.091,1.422,0.137,1.887,0.137c0.738,0,1.144-0.419,1.217-1.258
			c0.164-1.923,0.31-4.397,0.438-7.424h-1.046c-0.237,2.324-0.622,4.156-1.155,5.496c-0.729,1.732-1.969,3.217-3.719,4.457
			c-0.201-0.283-0.434-0.561-0.697-0.834c1.704-1.203,2.885-2.584,3.541-4.143c0.528-1.28,0.868-2.939,1.019-4.977h-1.217
			c-0.246,1.741-0.613,3.14-1.101,4.197c-0.602,1.194-1.427,2.265-2.475,3.213c-0.229-0.292-0.465-0.561-0.711-0.807
			c1.039-0.902,1.809-1.85,2.311-2.844c0.487-1.012,0.811-2.265,0.971-3.76h-0.984c-0.465,1.035-0.93,1.914-1.395,2.639
			C263.809,131.596,263.518,131.423,263.162,131.231z"/>
		<path d="M272.773,135.511h6.193v-1.545h-3.787v0.643h-1.039v-6.631h2.837c-0.438-0.51-0.909-1.034-1.415-1.572l0.779-0.643
			c0.674,0.647,1.267,1.244,1.777,1.791l-0.506,0.424h3.206c0.501-0.665,1.009-1.39,1.524-2.174l1.094,0.588
			c-0.47,0.57-0.923,1.099-1.36,1.586h2.796v6.631h-1.039v-0.643h-3.801v1.545h6.193v0.984h-6.193v2.885h-1.066v-2.885h-6.193
			V135.511z M275.18,130.493h3.787v-1.559h-3.787V130.493z M275.18,133.009h3.787v-1.586h-3.787V133.009z M283.834,128.935h-3.801
			v1.559h3.801V128.935z M280.033,133.009h3.801v-1.586h-3.801V133.009z"/>
	</g>
	<g>
		<path d="M57.691,134.099c0.401-0.05,0.811-0.103,1.23-0.157v-8.456h-1.025v-0.957h6.699v0.479h5.975v0.861
			c-0.529,3.363-1.308,5.84-2.338,7.431c0.861,1.217,1.896,2.163,3.104,2.837c-0.255,0.264-0.533,0.602-0.834,1.012
			c-0.976-0.711-1.937-1.704-2.885-2.98c-0.921,1.208-2.015,2.256-3.281,3.145c-0.26-0.342-0.492-0.629-0.697-0.861v0.848h-1.025
			v-2.96c-1.664,0.26-3.254,0.518-4.771,0.772L57.691,134.099z M59.947,127.577h2.666v-2.092h-2.666V127.577z M59.947,130.544h2.666
			v-2.092h-2.666V130.544z M62.613,133.415v-1.996h-2.666v2.386C60.799,133.682,61.688,133.552,62.613,133.415z M64.486,125.937
			v-0.451h-0.848v7.772c0.51-0.082,1.03-0.166,1.559-0.253c-0.027,0.374-0.041,0.688-0.041,0.943
			c-0.515,0.078-1.021,0.155-1.518,0.232v2.201c1.276-0.748,2.401-1.775,3.377-3.083c-1.053-1.677-1.729-4.131-2.03-7.362H64.486z
			 M69.545,125.937h-3.568c0.214,2.666,0.77,4.813,1.668,6.439C68.438,131.041,69.071,128.895,69.545,125.937z"/>
		<path d="M71.869,127.659c1.604-1.167,2.83-2.47,3.678-3.91l0.984,0.561c-0.429,0.638-0.907,1.258-1.436,1.859v3.773h-1.012v-2.721
			c-0.511,0.492-1.058,0.966-1.641,1.422C72.27,128.315,72.079,127.987,71.869,127.659z M78.049,132.048h1.066
			c0.009,1.066-0.032,1.777-0.123,2.133c1.868,0.638,3.796,1.349,5.783,2.133l-0.492,1.066c-2.005-0.866-3.888-1.609-5.646-2.229
			c-0.702,1.203-2.675,1.964-5.92,2.283c-0.137-0.301-0.314-0.647-0.533-1.039c3.135-0.237,4.99-0.861,5.564-1.873
			C77.967,134.167,78.067,133.342,78.049,132.048z M73.646,130.462h9.871v4.566h-1.066v-3.609h-7.738v3.609h-1.066V130.462z
			 M75.957,127.249c1.03-0.246,2.01-0.52,2.939-0.82v-2.516h1.066v2.146c1.349-0.492,2.57-1.053,3.664-1.682l0.643,0.916
			c-1.386,0.675-2.821,1.29-4.307,1.846v0.602c0,0.611,0.292,0.916,0.875,0.916h2.105c0.602,0,0.943-0.264,1.025-0.793
			c0.063-0.392,0.114-0.875,0.15-1.449c0.337,0.146,0.692,0.278,1.066,0.396c-0.073,0.602-0.15,1.107-0.232,1.518
			c-0.164,0.857-0.793,1.285-1.887,1.285h-2.434c-1.158,0-1.736-0.565-1.736-1.695v-0.396c-0.802,0.273-1.613,0.529-2.434,0.766
			L75.957,127.249z"/>
		<path d="M89.725,136.402l-0.82,0.827c-0.771-0.839-1.616-1.639-2.536-2.399l0.725-0.752
			C88.228,134.994,89.104,135.769,89.725,136.402z"/>
		<path d="M99.691,134.099c0.401-0.05,0.811-0.103,1.23-0.157v-8.456h-1.025v-0.957h6.699v0.479h5.975v0.861
			c-0.529,3.363-1.308,5.84-2.338,7.431c0.861,1.217,1.896,2.163,3.104,2.837c-0.255,0.264-0.533,0.602-0.834,1.012
			c-0.976-0.711-1.937-1.704-2.885-2.98c-0.921,1.208-2.015,2.256-3.281,3.145c-0.26-0.342-0.492-0.629-0.697-0.861v0.848h-1.025
			v-2.96c-1.664,0.26-3.254,0.518-4.771,0.772L99.691,134.099z M101.947,127.577h2.666v-2.092h-2.666V127.577z M101.947,130.544
			h2.666v-2.092h-2.666V130.544z M104.613,133.415v-1.996h-2.666v2.386C102.799,133.682,103.688,133.552,104.613,133.415z
			 M106.486,125.937v-0.451h-0.848v7.772c0.51-0.082,1.03-0.166,1.559-0.253c-0.027,0.374-0.041,0.688-0.041,0.943
			c-0.515,0.078-1.021,0.155-1.518,0.232v2.201c1.276-0.748,2.401-1.775,3.377-3.083c-1.053-1.677-1.729-4.131-2.03-7.362H106.486z
			 M111.545,125.937h-3.568c0.214,2.666,0.77,4.813,1.668,6.439C110.438,131.041,111.071,128.895,111.545,125.937z"/>
		<path d="M115.564,126.948h2.892c0.223-0.952,0.412-1.991,0.567-3.117l1.162,0.15c-0.155,1.035-0.344,2.023-0.567,2.967h7.554
			v1.012h-7.813c-0.164,0.602-0.344,1.181-0.54,1.736h6.781v0.943c-0.602,1.49-1.538,2.778-2.81,3.862
			c1.28,0.775,2.773,1.319,4.478,1.634c-0.41,0.456-0.729,0.838-0.957,1.148c-1.458-0.483-2.926-1.189-4.402-2.119
			c-1.185,0.779-2.88,1.518-5.086,2.215c-0.255-0.365-0.529-0.702-0.82-1.012c2.242-0.583,3.917-1.201,5.024-1.853
			c-1.199-1.025-2.053-2.317-2.563-3.876c-0.998,2.498-2.356,4.548-4.074,6.152c-0.246-0.347-0.488-0.656-0.725-0.93
			c2.055-1.854,3.566-4.489,4.532-7.902h-3.794v-1.025c0.374-0.866,0.715-1.736,1.025-2.611l1.107,0.301
			C116.216,125.426,115.893,126.201,115.564,126.948z M124.396,130.64h-4.942c0.41,1.263,1.224,2.35,2.44,3.261
			C123.075,132.925,123.909,131.838,124.396,130.64z M122.291,124.774l0.602-0.766c0.893,0.565,1.75,1.153,2.57,1.764l-0.738,0.889
			C123.932,125.987,123.12,125.358,122.291,124.774z"/>
		<path d="M131.52,134.017l0.752,0.834c-1.322,0.811-2.652,1.577-3.992,2.297c-0.155-0.273-0.351-0.593-0.588-0.957
			C129.159,135.507,130.435,134.782,131.52,134.017z M127.91,132.868h13.262v0.848h-5.988v1.805c0,1.075-0.533,1.618-1.6,1.627
			c-0.483,0-1.08-0.005-1.791-0.014c-0.037-0.301-0.096-0.661-0.178-1.08c0.692,0.063,1.249,0.096,1.668,0.096
			c0.574,0,0.861-0.283,0.861-0.848v-1.586h-6.234V132.868z M128.881,126.606h3.418v-1.271h-4.143v-0.848h12.742v0.848h-4.17v1.271
			h3.432v3.801h-0.957v-0.438h-9.365v0.438h-0.957V126.606z M128.895,130.995h11.293v0.848h-11.293V130.995z M129.838,129.149h2.461
			v-1.723h-2.461V129.149z M133.283,126.606h2.461v-1.271h-2.461V126.606z M133.283,129.149h2.461v-1.723h-2.461V129.149z
			 M136.469,134.933l0.574-0.848c1.285,0.62,2.634,1.299,4.047,2.037l-0.643,1.012C139.016,136.295,137.69,135.562,136.469,134.933z
			 M139.203,127.427h-2.475v1.723h2.475V127.427z"/>
	</g>
	<g>
		<path d="M171.773,159.915h3.568v-3.979h-2.967v-1.08h12.264v1.08h-2.789v3.979h3.377v1.08h-3.377v6.234h-1.121v-6.234h-4.272
			c-0.032,1.668-0.271,2.908-0.718,3.719c-0.447,0.893-1.472,1.791-3.076,2.693c-0.237-0.328-0.497-0.647-0.779-0.957
			c1.395-0.711,2.324-1.454,2.789-2.229c0.415-0.624,0.636-1.7,0.663-3.227h-3.562V159.915z M176.463,159.915h4.266v-3.979h-4.266
			V159.915z"/>
		<path d="M187.564,156.948h2.892c0.223-0.952,0.412-1.991,0.567-3.117l1.162,0.15c-0.155,1.035-0.344,2.023-0.567,2.967h7.554
			v1.012h-7.813c-0.164,0.602-0.344,1.181-0.54,1.736h6.781v0.943c-0.602,1.49-1.538,2.778-2.81,3.862
			c1.28,0.775,2.773,1.319,4.478,1.634c-0.41,0.456-0.729,0.838-0.957,1.148c-1.458-0.483-2.926-1.189-4.402-2.119
			c-1.185,0.779-2.88,1.518-5.086,2.215c-0.255-0.365-0.529-0.702-0.82-1.012c2.242-0.583,3.917-1.201,5.024-1.853
			c-1.199-1.025-2.053-2.317-2.563-3.876c-0.998,2.498-2.356,4.548-4.074,6.152c-0.246-0.347-0.488-0.656-0.725-0.93
			c2.055-1.854,3.566-4.489,4.532-7.902h-3.794v-1.025c0.374-0.866,0.715-1.736,1.025-2.611l1.107,0.301
			C188.216,155.426,187.893,156.201,187.564,156.948z M196.396,160.64h-4.942c0.41,1.263,1.224,2.35,2.44,3.261
			C195.075,162.925,195.909,161.838,196.396,160.64z M194.291,154.774l0.602-0.766c0.893,0.565,1.75,1.153,2.57,1.764l-0.738,0.889
			C195.932,155.987,195.12,155.358,194.291,154.774z"/>
		<path d="M203.52,164.017l0.752,0.834c-1.322,0.811-2.652,1.577-3.992,2.297c-0.155-0.273-0.351-0.593-0.588-0.957
			C201.159,165.507,202.435,164.782,203.52,164.017z M199.91,162.868h13.262v0.848h-5.988v1.805c0,1.075-0.533,1.618-1.6,1.627
			c-0.483,0-1.08-0.005-1.791-0.014c-0.037-0.301-0.096-0.661-0.178-1.08c0.692,0.063,1.249,0.096,1.668,0.096
			c0.574,0,0.861-0.283,0.861-0.848v-1.586h-6.234V162.868z M200.881,156.606h3.418v-1.271h-4.143v-0.848h12.742v0.848h-4.17v1.271
			h3.432v3.801h-0.957v-0.438h-9.365v0.438h-0.957V156.606z M200.895,160.995h11.293v0.848h-11.293V160.995z M201.838,159.149h2.461
			v-1.723h-2.461V159.149z M205.283,156.606h2.461v-1.271h-2.461V156.606z M205.283,159.149h2.461v-1.723h-2.461V159.149z
			 M208.469,164.933l0.574-0.848c1.285,0.62,2.634,1.299,4.047,2.037l-0.643,1.012C211.016,166.295,209.69,165.562,208.469,164.933z
			 M211.203,157.427h-2.475v1.723h2.475V157.427z"/>
	</g>
	<g>
		<path d="M229.032,309.843l0.417,0.944c-0.969-0.176-3.078-0.498-6.326-0.964c0.768,0.81,1.478,1.888,2.132,3.234l-0.186,0.139
			c-0.844-1.3-1.836-2.474-2.975-3.521c-0.36-0.052-0.688-0.08-0.982-0.086l0.348-0.502c-0.655-0.572-1.456-1.148-2.404-1.727
			l-0.451,3.14l0.046,0.835l-0.495,0.371l0.645-4.493c-0.644-0.387-1.231-0.655-1.763-0.806l0.836-1.206
			c0.103,0.31,0.246,0.533,0.429,0.67s0.393,0.277,0.63,0.422l0.692-4.818l-0.603-0.805l1.115-0.834l-0.949,6.604
			c1.072,0.743,2.095,1.571,3.068,2.484C225.83,309.438,228.088,309.744,229.032,309.843z M228.814,305.972
			c0.039-0.271-0.158-0.437-0.591-0.499l-2.707-0.389l-0.342,2.382l0.045,0.835l-0.495,0.371l0.521-3.627
			c-0.938-0.135-1.699-0.226-2.281-0.272l0.41-0.549l-1.406-1.749l-0.56,3.897l0.053,0.781l-0.495,0.371l0.739-5.143l-0.464-0.619
			l1.161-0.772c0,0.516,0.121,1.021,0.362,1.516c0.241,0.496,0.51,1.004,0.803,1.524l0.333-0.395l0.263,0.48l1.191,0.171
			l0.334-2.328l-0.603-0.805l1.114-0.834l-0.576,4.006l3.356,0.481c0.325,0.047,0.564,0.174,0.719,0.38
			c0.155,0.207,0.281,0.482,0.378,0.828c-0.5,0.148-0.939,0.639-1.316,1.468l-0.271-0.038
			C228.668,306.733,228.775,306.242,228.814,305.972z"/>
		<path d="M228.09,297.553l-4.872-0.7c0.881,0.79,1.574,1.479,2.079,2.067l-0.132,0.146c-0.886-0.753-1.921-1.491-3.107-2.215
			c-1.186-0.723-2.247-1.279-3.185-1.673l0.968-0.966c0.066,0.305,0.353,0.622,0.857,0.952c0.505,0.33,1.062,0.687,1.67,1.068
			l0.41-0.549l0.271,0.426l5.576,0.801c0.614,0.088,1.374,0.18,2.281,0.272l0.208,0.858
			C229.603,297.789,228.595,297.625,228.09,297.553z M229.935,292.403l-2.978-0.428c0.423,0.65,0.731,1.32,0.927,2.012l-0.225,0.023
			c-0.339-0.712-0.754-1.416-1.243-2.113l-0.487-0.069l0.201-0.247c-0.463-0.619-0.919-1.163-1.368-1.634l-0.249,1.732
			c-0.057,0.397-0.055,0.766,0.007,1.106l-0.496,0.37l0.358-2.489l-2.057-0.296l-0.117,0.813l0.093,0.51l-0.496,0.371l0.249-1.732
			c-1.264-0.182-2.114-0.284-2.552-0.312l0.813-1.043l0.325,0.434l1.516,0.218l0.039-0.271l-0.463-0.619l0.929-0.695l-0.233,1.623
			l2.057,0.296l0.031-0.217c-0.484-0.475-1.021-0.966-1.612-1.475c-0.59-0.508-1.088-0.883-1.496-1.126l0.898-0.865
			c0.134,0.351,0.345,0.676,0.633,0.975c0.289,0.3,0.85,0.877,1.685,1.733l0.217-1.516l-0.51-0.681l0.991-0.742l-0.451,3.14
			c0.504,0.589,1.017,1.251,1.538,1.989l0.404-2.814l-0.371-0.496l0.813-0.656l0.208,0.472l2.977,0.428
			c0.397,0.058,0.995,0.125,1.794,0.202l0.162,0.797l-1.137-0.163l-0.412,2.869l0.92,0.132l0.216,0.805
			C231.123,292.593,230.44,292.476,229.935,292.403z M220.382,293.904c0.764-0.7,1.282-1.04,1.555-1.02s0.501,0.164,0.684,0.43
			c0.183,0.266,0.081,0.398-0.306,0.397c-0.387,0-0.985,0.126-1.794,0.378L220.382,293.904z M228.379,292.843l0.178-0.085
			c0.932,1.202,1.62,1.928,2.063,2.175l-0.859,0.595c-0.16-0.17-0.438-0.283-0.835-0.341l-4.276-0.614l-0.07,0.487l0.092,0.511
			l-0.495,0.371l0.194-1.354l-0.417-0.558l0.805-0.603l0.262,0.479l4.223,0.607L228.379,292.843z M228.466,291.475l0.412-2.869
			l-1.787-0.257l-0.412,2.869L228.466,291.475z M230.577,291.777l0.412-2.869l-1.84-0.265l-0.412,2.869L230.577,291.777z"/>
	</g>
	<g>
		<path d="M147.141,335.672l0.82,0.492h1.805l0.492-0.547l0.766,0.766l-0.492,0.328l-1.367,3.227
			c0.766,0.911,1.239,1.641,1.422,2.188c0.182,0.547,0.164,1.085-0.055,1.613s-0.693,0.957-1.422,1.285
			c-0.183-0.511-0.583-0.875-1.203-1.094v3.719l-0.766,0.383c0.036-1.021,0.055-3.181,0.055-6.48S147.177,336.292,147.141,335.672z
			 M147.906,336.438v7.273c0.802,0.255,1.358,0.282,1.668,0.082c0.31-0.2,0.438-0.629,0.383-1.285s-0.429-1.567-1.121-2.734
			l0.984-3.336H147.906z M152.609,347.32l-0.766,0.383c0.036-0.875,0.055-3.573,0.055-8.094c-0.583,0.802-1.058,1.386-1.422,1.75
			l-0.109-0.164c0.62-0.875,1.194-1.969,1.723-3.281c0.528-1.313,0.829-2.206,0.902-2.68l1.039,0.656l-0.438,0.328
			c-0.438,0.948-0.857,1.841-1.258,2.68l0.656,0.383l-0.438,0.328C152.555,344.239,152.573,346.81,152.609,347.32z M156.055,346.609
			c0.146-0.036,0.219-0.164,0.219-0.383v-6.617h-1.422c-0.401,0-0.766,0.055-1.094,0.164l-0.438-0.438h2.953
			c0-1.567-0.019-2.898-0.055-3.992l1.148,0.492l-0.383,0.383v3.117h0.547l0.547-0.547l0.82,0.82h-1.914v6.891
			c0,0.328-0.073,0.565-0.219,0.711c-0.146,0.146-0.438,0.31-0.875,0.492c-0.219-0.511-0.693-0.856-1.422-1.039v-0.219
			C155.38,346.591,155.909,346.646,156.055,346.609z M153.648,340.922c0.838,0.401,1.385,0.757,1.641,1.066
			c0.255,0.31,0.273,0.647,0.055,1.012s-0.419,0.292-0.602-0.219c-0.183-0.511-0.583-1.075-1.203-1.695L153.648,340.922z"/>
		<path d="M161.469,344.887c0.292-0.894,0.465-1.832,0.52-2.816s0.082-2.206,0.082-3.664s0-2.479,0-3.063l0.766,0.383h7.711
			l0.383-0.492l0.875,0.656l-0.383,0.273c0,0.692,0.018,1.276,0.055,1.75l-0.82,0.328v-0.492h-7.82c0,1.823-0.037,3.227-0.109,4.211
			c-0.073,0.984-0.283,1.941-0.629,2.871c-0.347,0.93-0.939,1.923-1.777,2.98l-0.164-0.109
			C160.739,346.719,161.177,345.78,161.469,344.887z M162.836,337.477h7.82V336h-7.82V337.477z M171.422,339.281
			c-0.511-0.036-1.021-0.046-1.531-0.027c-0.511,0.019-1.148,0.046-1.914,0.082v1.203h2.242l0.383-0.438l0.766,0.602l-0.383,0.273
			c0,0.255,0,0.52,0,0.793s0.018,0.52,0.055,0.738l-0.766,0.273v-0.492h-2.297v1.148h3.172l0.328-0.438l0.766,0.547l-0.328,0.328
			v2.57c0.036,0.656-0.31,1.112-1.039,1.367c-0.073-0.474-0.583-0.802-1.531-0.984v-0.219c0.692,0.036,1.176,0.063,1.449,0.082
			s0.41-0.118,0.41-0.41v-2.57h-3.227v1.422l1.531-0.055c-0.183-0.328-0.347-0.602-0.492-0.82l0.109-0.109
			c0.51,0.364,0.875,0.647,1.094,0.848s0.328,0.41,0.328,0.629s-0.091,0.41-0.273,0.574c-0.183,0.164-0.31,0.109-0.383-0.164
			c-0.073-0.273-0.146-0.501-0.219-0.684c-2.333,0.292-3.719,0.565-4.156,0.82l-0.383-0.875l2.133-0.109v-1.477h-3.063v3.664
			l-0.766,0.383c0.036-0.474,0.055-1.294,0.055-2.461s-0.019-1.914-0.055-2.242l0.766,0.383h3.063v-1.148h-2.242v0.273l-0.766,0.273
			c0.036-0.328,0.055-0.784,0.055-1.367s-0.019-1.021-0.055-1.313l0.766,0.383h2.242v-1.203c-1.203,0.073-2.352,0.109-3.445,0.109
			v-0.219c1.458-0.073,2.743-0.164,3.855-0.273c1.112-0.109,2.124-0.31,3.035-0.602L171.422,339.281z M165.023,342.016h2.242v-1.203
			h-2.242V342.016z M167.977,342.016h2.297v-1.203h-2.297V342.016z"/>
	</g>
	<g>
		<path d="M452.234,114.297v-5.578c-0.766,1.021-1.44,1.823-2.023,2.406l-0.164-0.164c0.583-0.729,1.167-1.641,1.75-2.734
			s1.148-2.479,1.695-4.156l1.148,0.82l-0.492,0.219c-0.583,1.13-1.058,2.042-1.422,2.734l0.656,0.328l-0.438,0.328v6.234
			c0,0.365,0.019,0.984,0.055,1.859l-0.82,0.383C452.216,115.773,452.234,114.88,452.234,114.297z M457.484,113.531l-0.492,0.219
			c-1.458,1.641-2.661,2.716-3.609,3.227l-0.109-0.164c0.766-0.656,1.422-1.367,1.969-2.133s0.948-1.44,1.203-2.023L457.484,113.531
			z M456.172,105.984c0-0.547-0.019-1.167-0.055-1.859l1.148,0.547l-0.383,0.383v2.516h2.352v-1.969
			c0-0.438-0.019-0.911-0.055-1.422l1.203,0.547l-0.438,0.438v2.406h0.875l0.711-0.711l0.984,0.984h-2.57v3.883h1.367l0.711-0.711
			l0.984,0.984h-8.148c-0.401,0-0.766,0.055-1.094,0.164l-0.438-0.438h2.844v-3.883h-1.148l-0.492,0.164l-0.438-0.438h2.078V105.984
			z M456.883,111.727h2.352v-3.883h-2.352V111.727z M461.75,114.898c0.328,0.292,0.492,0.574,0.492,0.848s-0.063,0.51-0.191,0.711
			c-0.128,0.2-0.301,0.127-0.52-0.219c-0.219-0.347-0.565-0.802-1.039-1.367c-0.474-0.565-1.021-1.121-1.641-1.668l0.109-0.164
			C460.492,113.987,461.422,114.607,461.75,114.898z"/>
		<path d="M466.563,106.313h8.148l0.875-0.93l1.094,1.203h-10.227c0,1.313-0.009,2.47-0.027,3.473
			c-0.019,1.003-0.164,2.06-0.438,3.172c-0.273,1.112-0.866,2.306-1.777,3.582l-0.164-0.109c0.766-1.495,1.222-2.834,1.367-4.02
			c0.146-1.185,0.228-2.324,0.246-3.418s-0.009-2.224-0.082-3.391L466.563,106.313z M472.359,115.445
			c0.802-1.932,1.376-3.409,1.723-4.43c0.347-1.021,0.593-2.005,0.738-2.953l1.367,0.82c-0.364,0.146-0.839,0.875-1.422,2.188
			s-1.276,2.771-2.078,4.375h2.242l0.875-0.93l1.094,1.203h-9.297c-0.401,0-0.766,0.055-1.094,0.164l-0.438-0.438H472.359z
			 M469.844,111.645c0.146,0.529,0.191,0.948,0.137,1.258c-0.055,0.31-0.2,0.501-0.438,0.574c-0.237,0.073-0.41-0.273-0.52-1.039
			s-0.565-2.078-1.367-3.938l0.164-0.109C469.023,110.031,469.698,111.116,469.844,111.645z M471.348,105.109
			c0.091,0.292,0.091,0.529,0,0.711c-0.091,0.183-0.219,0.283-0.383,0.301c-0.164,0.019-0.292-0.137-0.383-0.465
			s-0.374-0.766-0.848-1.313l0.109-0.219C470.755,104.49,471.257,104.818,471.348,105.109z M472.305,110.141
			c0.292,0.583,0.401,1.112,0.328,1.586c-0.073,0.474-0.228,0.748-0.465,0.82c-0.237,0.073-0.401-0.282-0.492-1.066
			c-0.091-0.784-0.52-2.014-1.285-3.691l0.219-0.164C471.448,108.719,472.013,109.558,472.305,110.141z"/>
	</g>
</g>
</svg>
